<?xml version="1.0" encoding="UTF-8"?>
<!-- Generator: visioncortex VTracer 0.6.4 -->
<svg version="1.1" xmlns="http://www.w3.org/2000/svg" width="2048" height="2048">
<path d="M0 0 C4.88 0.01 9.76 0 14.64 -0.01 C35.35 -0.05 56.03 0.25 76.72 1.15 C77.66 1.19 78.6 1.23 79.57 1.27 C82.23 1.38 84.89 1.51 87.55 1.64 C88.32 1.67 89.09 1.7 89.89 1.74 C94.93 2 99.44 2.95 104.32 4.26 C106.5 4.5 108.69 4.68 110.88 4.79 C112.08 4.86 113.28 4.92 114.52 5 C115.77 5.06 117.03 5.13 118.32 5.2 C127.66 5.76 136.55 6.63 145.69 8.61 C149.84 9.35 153.87 9.59 158.07 9.76 C164.05 10 169.45 10.86 175.2 12.5 C179.69 13.59 184.21 14.07 188.8 14.53 C192.67 14.94 195.74 15.82 199.32 17.26 C201.81 17.65 204.31 17.98 206.82 18.26 C213.76 19.04 213.76 19.04 216.82 20.26 C221.27 22.04 226.08 22.17 230.82 22.7 C234.32 23.26 234.32 23.26 236.24 24.22 C239.64 25.92 243.34 26.28 247.07 26.89 C247.86 27.02 248.65 27.15 249.47 27.29 C251.42 27.62 253.37 27.94 255.32 28.26 C255.32 28.92 255.32 29.58 255.32 30.26 C256.08 30.31 256.84 30.36 257.62 30.41 C258.61 30.48 259.61 30.56 260.63 30.64 C261.62 30.71 262.6 30.77 263.62 30.85 C266.32 31.26 266.32 31.26 269.32 33.26 C271.33 33.68 273.35 34.03 275.38 34.32 C281.13 35.17 281.13 35.17 283.32 36.26 C283.32 36.92 283.32 37.58 283.32 38.26 C285.22 38.17 285.22 38.17 287.16 38.07 C292.76 38.07 297.6 39.54 302.88 41.26 C304.25 41.69 304.25 41.69 305.65 42.13 C307.88 42.83 310.1 43.54 312.32 44.26 C312.32 44.92 312.32 45.58 312.32 46.26 C312.93 46.31 313.55 46.36 314.18 46.41 C314.99 46.48 315.8 46.56 316.63 46.64 C317.83 46.74 317.83 46.74 319.06 46.85 C321.32 47.26 321.32 47.26 324.32 49.26 C326.06 49.69 327.81 50.05 329.57 50.39 C340.11 52.68 350.19 56.61 360.32 60.26 C360.32 60.92 360.32 61.58 360.32 62.26 C363.78 62.76 363.78 62.76 367.32 63.26 C367.65 64.25 367.98 65.24 368.32 66.26 C369.21 66.2 370.09 66.14 371.01 66.07 C374.78 66.29 376.15 67.3 379.32 69.26 C381.97 70.08 384.61 70.66 387.32 71.26 C387.32 71.92 387.32 72.58 387.32 73.26 C388.37 73.44 388.37 73.44 389.44 73.63 C390.35 73.8 391.26 73.96 392.19 74.14 C393.1 74.3 394 74.46 394.94 74.63 C397.32 75.26 397.32 75.26 399.32 77.26 C400.84 77.86 402.39 78.4 403.94 78.89 C404.76 79.15 405.58 79.41 406.42 79.67 C407.05 79.87 407.67 80.06 408.32 80.26 C408.32 80.92 408.32 81.58 408.32 82.26 C409.39 82.32 410.46 82.38 411.57 82.45 C417.56 83.16 422.87 85.8 428.32 88.26 C428.32 88.92 428.32 89.58 428.32 90.26 C429.78 90.38 429.78 90.38 431.26 90.51 C436.02 91.19 439.98 93.2 444.26 95.32 C445.5 95.93 445.5 95.93 446.78 96.55 C449.3 97.78 451.81 99.02 454.32 100.26 C455.72 100.95 457.12 101.63 458.52 102.32 C466.11 106.06 473.61 109.98 481.08 113.96 C485.67 116.41 490.29 118.77 494.94 121.07 C499.5 123.33 503.95 125.66 508.32 128.26 C508.32 128.92 508.32 129.58 508.32 130.26 C509.04 130.36 509.76 130.46 510.5 130.56 C513.7 131.36 515.72 132.61 518.44 134.45 C523.14 137.54 527.93 140.29 532.91 142.9 C535.21 144.2 537.23 145.64 539.32 147.26 C542 148.93 544.73 150.49 547.48 152.04 C551.54 154.35 555.46 156.85 559.38 159.39 C560.48 160.1 560.48 160.1 561.6 160.82 C567.17 164.44 572.6 168.23 577.94 172.18 C580.41 173.98 582.39 175.29 585.32 176.26 C585.32 176.92 585.32 177.58 585.32 178.26 C585.86 178.53 586.39 178.8 586.94 179.07 C587.73 179.47 588.51 179.86 589.32 180.26 C590.37 180.74 591.42 181.21 592.51 181.7 C595.32 183.26 595.32 183.26 596.32 186.26 C597.06 186.36 597.8 186.47 598.57 186.57 C601.52 187.31 603.1 188.21 605.32 190.26 C605.32 190.92 605.32 191.58 605.32 192.26 C605.9 192.55 606.47 192.84 607.07 193.14 C609.15 194.18 611.24 195.22 613.32 196.26 C613.32 196.92 613.32 197.58 613.32 198.26 C614.31 198.26 615.3 198.26 616.32 198.26 C616.32 198.92 616.32 199.58 616.32 200.26 C617.09 200.6 617.09 200.6 617.88 200.95 C621.21 202.74 624.47 204.76 627.32 207.26 C627.32 207.92 627.32 208.58 627.32 209.26 C627.88 209.52 628.44 209.78 629.01 210.04 C642.22 217.01 654.63 228.35 665.63 238.36 C666.41 239.07 667.2 239.78 668.01 240.51 C668.71 241.16 669.42 241.8 670.14 242.46 C672.42 244.34 674.79 245.75 677.32 247.26 C681.94 250.95 686.2 255.03 690.32 259.26 C691.52 260.49 692.73 261.72 693.94 262.95 C694.8 263.82 694.8 263.82 695.67 264.71 C697.44 266.46 697.44 266.46 700.32 268.26 C700.32 268.92 700.32 269.58 700.32 270.26 C701.15 270.63 701.15 270.63 702.01 271.01 C704.74 272.49 707 274.2 709.32 276.26 C709.32 276.92 709.32 277.58 709.32 278.26 C709.98 278.26 710.64 278.26 711.32 278.26 C711.32 278.92 711.32 279.58 711.32 280.26 C712.31 280.26 713.3 280.26 714.32 280.26 C716.51 282.14 716.51 282.14 718.32 284.26 C718.32 284.92 718.32 285.58 718.32 286.26 C718.98 286.26 719.64 286.26 720.32 286.26 C722.94 288.64 722.94 288.64 725.32 291.26 C725.32 291.92 725.32 292.58 725.32 293.26 C726.31 293.59 727.3 293.92 728.32 294.26 C731.01 296.7 731.01 296.7 733.32 299.26 C733.32 299.92 733.32 300.58 733.32 301.26 C734.15 301.57 734.15 301.57 735.01 301.89 C738.29 303.84 740.03 306.2 742.32 309.26 C742.32 309.92 742.32 310.58 742.32 311.26 C742.94 311.51 743.56 311.76 744.19 312.01 C746.67 313.47 747.27 314.64 748.32 317.26 C748.98 317.26 749.64 317.26 750.32 317.26 C751.69 318.65 751.69 318.65 753.19 320.51 C754.97 322.66 756.69 324.62 758.69 326.57 C760.32 328.26 760.32 328.26 760.32 330.26 C761.64 330.92 762.96 331.58 764.32 332.26 C764.32 332.92 764.32 333.58 764.32 334.26 C764.98 334.26 765.64 334.26 766.32 334.26 C767.8 335.76 767.8 335.76 769.51 337.82 C772.51 341.37 775.66 344.63 779.03 347.82 C780.32 349.26 780.32 349.26 780.32 351.26 C780.98 351.26 781.64 351.26 782.32 351.26 C783.85 353.27 785.28 355.29 786.69 357.39 C790.39 362.72 794.3 367.75 798.57 372.64 C810.32 386.11 810.32 386.11 810.32 389.26 C810.98 389.26 811.64 389.26 812.32 389.26 C814.07 391.46 815.7 393.66 817.32 395.95 C818.32 397.34 819.32 398.73 820.32 400.11 C820.82 400.81 821.32 401.51 821.84 402.23 C823.96 405.14 826.17 407.98 828.38 410.82 C833.56 417.5 838.45 424.36 843.32 431.26 C843.9 432.08 844.48 432.89 845.08 433.73 C849.49 439.95 853.69 446.3 857.91 452.65 C860.58 456.68 863.28 460.68 866.07 464.64 C871.68 472.59 877.06 480.55 881.63 489.16 C886.62 498.33 892.06 507.27 897.57 516.14 C901.04 521.74 904.23 527.44 907.32 533.26 C908.1 534.69 908.88 536.12 909.66 537.55 C910.48 539.08 911.31 540.61 912.13 542.14 C912.73 543.22 912.73 543.22 913.34 544.34 C915.28 547.96 916.82 551.11 917.32 555.26 C917.98 555.26 918.64 555.26 919.32 555.26 C926.8 571.97 926.8 571.97 929.32 580.26 C929.98 580.26 930.64 580.26 931.32 580.26 C931.54 580.84 931.76 581.43 931.98 582.03 C933.85 586.85 935.89 591.48 938.26 596.07 C940.29 600.05 942.06 604.02 943.63 608.21 C946.19 614.95 948.89 621.64 951.62 628.32 C975.75 687.31 975.75 687.31 983.74 714.91 C984.88 718.82 986.09 722.7 987.33 726.58 C996.55 755.31 1003.84 784.48 1009.68 814.08 C1010.48 818.05 1011.36 822.01 1012.25 825.96 C1017.85 850.88 1021.3 875.98 1024.35 901.31 C1024.48 902.34 1024.6 903.36 1024.73 904.42 C1024.96 906.35 1025.19 908.29 1025.42 910.23 C1025.52 911.1 1025.63 911.97 1025.73 912.86 C1025.82 913.62 1025.91 914.37 1026 915.15 C1026.28 917.24 1026.28 917.24 1026.81 919.13 C1034.52 951.38 1030.75 988.32 1030.65 1021.34 C1030.63 1027.41 1030.63 1033.47 1030.64 1039.54 C1030.64 1046.23 1030.64 1052.92 1030.63 1059.62 C1030.62 1062.41 1030.62 1065.2 1030.62 1067.99 C1030.63 1089.5 1029.56 1110.73 1026.88 1132.08 C1026.76 1133.11 1026.63 1134.15 1026.5 1135.22 C1026.11 1138.42 1025.72 1141.62 1025.32 1144.82 C1025.06 1146.98 1024.79 1149.14 1024.53 1151.3 C1024.03 1155.45 1023.51 1159.59 1023 1163.74 C1022.59 1167.02 1022.2 1170.3 1021.82 1173.58 C1020.62 1183.84 1018.89 1193.96 1017.02 1204.11 C1016.51 1206.93 1016.01 1209.74 1015.5 1212.56 C1013.21 1225.24 1010.44 1237.76 1007.32 1250.26 C1006.85 1252.17 1006.85 1252.17 1006.36 1254.11 C1005.54 1257.39 1004.71 1260.67 1003.88 1263.95 C1001.84 1272 999.9 1280.06 998.1 1288.16 C993.84 1307.29 987.89 1325.83 981.61 1344.38 C980.47 1347.78 979.41 1351.2 978.38 1354.64 C976.66 1360.31 974.76 1365.91 972.82 1371.51 C972.53 1372.34 972.25 1373.17 971.96 1374.02 C970.32 1378.69 968.49 1383.2 966.44 1387.71 C964.28 1392.62 962.33 1397.63 960.35 1402.62 C959.55 1404.61 958.76 1406.61 957.96 1408.6 C955.64 1414.41 953.33 1420.22 951.04 1426.04 C944.9 1441.56 938.37 1456.71 930.4 1471.39 C927.45 1476.86 924.66 1482.28 922.41 1488.08 C920.24 1493.63 917.59 1498.87 914.82 1504.14 C914.29 1505.14 913.77 1506.15 913.22 1507.18 C908.97 1515.2 904.4 1522.99 899.67 1530.73 C895.9 1536.91 892.23 1543.15 888.57 1549.4 C887.48 1551.27 886.38 1553.13 885.28 1555 C881.62 1561.23 878.05 1567.49 874.66 1573.87 C872.21 1578.23 869.26 1582.22 866.32 1586.26 C864.82 1588.34 863.32 1590.43 861.82 1592.51 C861.41 1593.08 861 1593.65 860.57 1594.24 C855.88 1600.81 851.39 1607.52 846.87 1614.2 C843.28 1619.48 839.6 1624.63 835.63 1629.64 C833.03 1632.92 830.81 1635.95 829.07 1639.76 C827.37 1643.15 825.97 1644.52 823 1646.75 C820.85 1648.68 819.36 1650.83 817.69 1653.2 C814.46 1657.8 811 1662.08 807.32 1666.32 C803.1 1671.18 798.99 1676.09 795.01 1681.14 C793.5 1683.03 791.96 1684.87 790.38 1686.7 C788.16 1689.15 788.16 1689.15 787.32 1692.26 C786.66 1692.26 786 1692.26 785.32 1692.26 C785.07 1692.82 784.82 1693.37 784.57 1693.95 C783.09 1696.68 781.38 1698.94 779.32 1701.26 C778.66 1701.26 778 1701.26 777.32 1701.26 C776.99 1702.25 776.66 1703.24 776.32 1704.26 C774.79 1705.73 774.79 1705.73 772.82 1707.32 C768.77 1710.76 765.29 1714.5 761.79 1718.48 C759.1 1721.51 756.34 1724.48 753.57 1727.45 C748.56 1732.84 743.71 1738.36 738.95 1743.97 C733.61 1750.22 727.85 1755.87 721.64 1761.23 C718.74 1763.77 715.9 1766.35 713.07 1768.95 C712.56 1769.41 712.05 1769.88 711.53 1770.35 C709.32 1772.38 707.16 1774.43 705.08 1776.59 C703.32 1778.26 703.32 1778.26 701.32 1778.26 C700.99 1779.25 700.66 1780.24 700.32 1781.26 C698.64 1782.74 696.9 1784.14 695.13 1785.51 C691.15 1788.68 687.77 1791.8 684.59 1795.75 C682.74 1797.94 680.67 1799.63 678.32 1801.26 C677.66 1801.26 677 1801.26 676.32 1801.26 C676.32 1801.92 676.32 1802.58 676.32 1803.26 C674.81 1804.47 673.23 1805.6 671.63 1806.7 C667.15 1809.87 662.92 1813.19 658.76 1816.76 C652.23 1822.36 645.56 1827.75 638.76 1833.02 C638.14 1833.51 637.52 1833.99 636.88 1834.49 C635.67 1835.44 634.45 1836.38 633.23 1837.32 C630.47 1839.47 627.99 1841.59 625.53 1844.09 C623.32 1846.26 623.32 1846.26 621.32 1846.26 C621.32 1846.92 621.32 1847.58 621.32 1848.26 C619.3 1849.71 619.3 1849.71 616.51 1851.39 C611.3 1854.59 606.41 1858.07 601.53 1861.76 C599.32 1863.26 599.32 1863.26 597.32 1863.26 C597.32 1863.92 597.32 1864.58 597.32 1865.26 C595.34 1865.92 593.36 1866.58 591.32 1867.26 C591.32 1867.92 591.32 1868.58 591.32 1869.26 C589.18 1870.79 587.05 1872.19 584.82 1873.57 C583.85 1874.18 583.85 1874.18 582.86 1874.81 C581.02 1875.96 579.17 1877.11 577.32 1878.26 C576.58 1878.73 575.83 1879.2 575.07 1879.68 C573.16 1880.89 571.24 1882.08 569.32 1883.26 C568.26 1883.91 567.21 1884.56 566.12 1885.23 C556.74 1891.02 556.74 1891.02 553.61 1892.82 C551.35 1894.11 551.35 1894.11 549.94 1895.69 C548.13 1897.44 546.34 1898.55 544.15 1899.78 C542.93 1900.48 542.93 1900.48 541.69 1901.19 C540.85 1901.67 540 1902.14 539.13 1902.64 C537.47 1903.58 535.81 1904.52 534.15 1905.47 C533.34 1905.94 532.52 1906.4 531.68 1906.88 C529.48 1908.17 527.32 1909.51 525.17 1910.88 C521.52 1913.19 517.77 1915.09 513.88 1916.95 C508.03 1919.8 502.4 1922.91 496.82 1926.26 C489.49 1930.65 482.01 1934.55 474.33 1938.28 C472.25 1939.3 470.18 1940.34 468.11 1941.39 C467.07 1941.93 467.07 1941.93 466 1942.47 C464.69 1943.13 463.38 1943.8 462.07 1944.47 C458.63 1946.21 455.16 1947.75 451.57 1949.15 C445.82 1951.41 440.3 1954.06 434.76 1956.76 C428.75 1959.67 422.74 1962.56 416.63 1965.24 C414.04 1966.39 411.46 1967.56 408.89 1968.74 C396.24 1974.47 383.53 1979.45 370.36 1983.87 C361.54 1986.83 352.8 1990.06 344.07 1993.27 C330.68 1998.19 317.27 2002.86 303.51 2006.64 C302.46 2006.93 301.42 2007.22 300.35 2007.51 C294.61 2009.1 288.86 2010.66 283.1 2012.19 C281.93 2012.51 280.75 2012.82 279.54 2013.15 C277.27 2013.75 275 2014.35 272.73 2014.95 C271.7 2015.23 270.68 2015.5 269.62 2015.78 C268.71 2016.02 267.81 2016.26 266.88 2016.5 C264.34 2017.2 264.34 2017.2 262.08 2018.21 C258.08 2019.73 253.97 2020.58 249.8 2021.5 C248.87 2021.71 247.94 2021.92 246.98 2022.13 C243.97 2022.81 240.96 2023.47 237.94 2024.14 C236.4 2024.48 236.4 2024.48 234.83 2024.83 C231.73 2025.51 228.63 2026.19 225.53 2026.87 C224.59 2027.07 223.65 2027.28 222.67 2027.49 C214.28 2029.31 205.86 2030.94 197.37 2032.27 C192.34 2033.07 187.34 2033.98 182.33 2034.91 C163.4 2038.38 144.53 2041.44 125.37 2043.29 C123.73 2043.44 122.09 2043.6 120.45 2043.76 C119.61 2043.84 118.76 2043.92 117.89 2044.01 C115.36 2044.26 112.83 2044.51 110.3 2044.77 C78.42 2048.02 46.78 2048.9 14.75 2048.78 C8.25 2048.76 1.76 2048.77 -4.74 2048.8 C-61.45 2048.97 -116.99 2044.09 -172.8 2034.13 C-176.59 2033.45 -180.39 2032.79 -184.19 2032.14 C-200.15 2029.42 -215.96 2026.2 -231.74 2022.57 C-232.59 2022.38 -233.43 2022.19 -234.3 2021.99 C-236.71 2021.44 -239.12 2020.88 -241.53 2020.31 C-242.24 2020.15 -242.94 2019.99 -243.67 2019.82 C-247.87 2018.82 -251.82 2017.51 -255.84 2015.95 C-258.29 2015.03 -260.76 2014.41 -263.31 2013.82 C-270.13 2012.17 -276.87 2010.26 -283.62 2008.32 C-285.38 2007.82 -285.38 2007.82 -287.17 2007.31 C-290.68 2006.3 -294.18 2005.29 -297.68 2004.26 C-299.13 2003.84 -299.13 2003.84 -300.61 2003.41 C-311.01 2000.29 -321.25 1996.69 -331.5 1993.14 C-334.71 1992.02 -337.92 1990.92 -341.14 1989.81 C-353.36 1985.59 -365.43 1981.11 -377.4 1976.19 C-380.74 1974.83 -384.09 1973.49 -387.45 1972.16 C-390.57 1970.9 -393.66 1969.59 -396.74 1968.26 C-398.4 1967.55 -398.4 1967.55 -400.09 1966.82 C-407.39 1963.65 -414.62 1960.37 -421.81 1956.95 C-427.04 1954.46 -432.28 1951.97 -437.55 1949.54 C-446.64 1945.34 -455.57 1940.86 -464.5 1936.34 C-466.17 1935.5 -467.83 1934.66 -469.49 1933.82 C-470.43 1933.35 -471.36 1932.88 -472.33 1932.39 C-474.74 1931.17 -474.74 1931.17 -477.68 1930.26 C-477.68 1929.6 -477.68 1928.94 -477.68 1928.26 C-478.46 1928.05 -479.24 1927.84 -480.04 1927.62 C-484.98 1925.78 -489.33 1923.17 -493.87 1920.51 C-495.76 1919.42 -497.65 1918.32 -499.54 1917.23 C-500.44 1916.71 -501.34 1916.19 -502.26 1915.66 C-507.74 1912.5 -513.29 1909.47 -518.93 1906.62 C-527.78 1902.11 -535.99 1896.89 -544.18 1891.27 C-548.14 1888.57 -552.07 1885.99 -556.28 1883.71 C-560.84 1881.24 -564.99 1878.36 -569.18 1875.32 C-570.66 1874.26 -572.14 1873.2 -573.61 1872.15 C-574.66 1871.4 -574.66 1871.4 -575.73 1870.63 C-578.86 1868.43 -582.07 1866.37 -585.31 1864.35 C-585.76 1863.99 -586.21 1863.63 -586.68 1863.26 C-586.68 1862.6 -586.68 1861.94 -586.68 1861.26 C-587.86 1860.8 -587.86 1860.8 -589.06 1860.32 C-591.68 1859.26 -591.68 1859.26 -593.68 1858.26 C-593.68 1857.6 -593.68 1856.94 -593.68 1856.26 C-594.39 1856.01 -595.11 1855.76 -595.84 1855.5 C-598.97 1854.13 -601.39 1852.44 -604.12 1850.39 C-608.58 1847.06 -608.58 1847.06 -613.18 1843.95 C-615.68 1842.26 -615.68 1842.26 -617 1840.91 C-619.19 1838.77 -621.59 1837.06 -624.06 1835.26 C-629.2 1831.46 -634.1 1827.44 -638.96 1823.28 C-642.21 1820.5 -645.5 1817.79 -648.87 1815.14 C-654.01 1811.06 -658.84 1806.68 -663.68 1802.26 C-665.22 1800.86 -666.76 1799.46 -668.31 1798.07 C-668.96 1797.48 -669.61 1796.89 -670.28 1796.28 C-672.3 1794.58 -674.34 1793.03 -676.46 1791.48 C-680.79 1788.26 -684.67 1784.68 -688.56 1780.95 C-689.86 1779.7 -691.17 1778.45 -692.49 1777.21 C-693.05 1776.67 -693.62 1776.12 -694.2 1775.56 C-695.67 1774.16 -695.67 1774.16 -697.68 1773.26 C-697.68 1772.6 -697.68 1771.94 -697.68 1771.26 C-698.34 1771.26 -699 1771.26 -699.68 1771.26 C-699.68 1770.6 -699.68 1769.94 -699.68 1769.26 C-700.27 1769.01 -700.85 1768.75 -701.45 1768.49 C-703.93 1767.12 -705.44 1765.64 -707.36 1763.56 C-708.04 1762.82 -708.72 1762.09 -709.43 1761.33 C-710.13 1760.57 -710.83 1759.8 -711.56 1759.01 C-712.95 1757.5 -714.34 1756 -715.74 1754.5 C-716.4 1753.77 -717.07 1753.05 -717.75 1752.31 C-719.52 1750.43 -721.34 1748.63 -723.19 1746.84 C-725.68 1744.26 -725.68 1744.26 -725.68 1742.26 C-726.25 1742.01 -726.83 1741.77 -727.42 1741.51 C-730.04 1740.06 -731.8 1738.37 -733.9 1736.23 C-734.69 1735.44 -735.47 1734.65 -736.28 1733.83 C-737.1 1733 -737.91 1732.18 -738.74 1731.32 C-739.56 1730.5 -740.37 1729.67 -741.21 1728.83 C-742.73 1727.29 -744.24 1725.76 -745.75 1724.22 C-746.96 1723 -748.18 1721.8 -749.44 1720.63 C-750.68 1719.26 -750.68 1719.26 -750.68 1717.26 C-751.34 1717.26 -752 1717.26 -752.68 1717.26 C-754.1 1715.71 -755.44 1714.09 -756.74 1712.45 C-757.54 1711.45 -758.34 1710.45 -759.17 1709.42 C-759.58 1708.9 -760 1708.38 -760.43 1707.84 C-762.41 1705.34 -764.42 1702.86 -766.43 1700.39 C-767.13 1699.52 -767.82 1698.66 -768.54 1697.77 C-770.8 1695.12 -773.2 1692.71 -775.68 1690.26 C-777.62 1688.26 -779.53 1686.23 -781.43 1684.2 C-781.92 1683.68 -782.42 1683.17 -782.93 1682.63 C-785.49 1679.88 -786.9 1677.92 -787.68 1674.26 C-788.67 1673.93 -789.66 1673.6 -790.68 1673.26 C-792.42 1671.25 -794.03 1669.25 -795.62 1667.14 C-796.59 1665.86 -797.57 1664.59 -798.54 1663.32 C-799.31 1662.33 -799.31 1662.33 -800.09 1661.31 C-801.71 1659.23 -803.36 1657.18 -805.04 1655.14 C-805.86 1654.13 -805.86 1654.13 -806.69 1653.11 C-807.75 1651.81 -808.81 1650.52 -809.88 1649.24 C-812.29 1646.27 -813.94 1644.01 -814.68 1640.26 C-815.34 1640.26 -816 1640.26 -816.68 1640.26 C-818.14 1638.35 -819.48 1636.45 -820.81 1634.45 C-821.61 1633.26 -822.41 1632.07 -823.22 1630.88 C-823.62 1630.27 -824.03 1629.67 -824.45 1629.05 C-826.94 1625.42 -829.61 1621.92 -832.25 1618.41 C-833.68 1616.26 -833.68 1616.26 -833.68 1614.26 C-834.34 1614.26 -835 1614.26 -835.68 1614.26 C-837.08 1612.54 -837.08 1612.54 -838.69 1610.12 C-839.28 1609.24 -839.87 1608.36 -840.48 1607.45 C-841.1 1606.5 -841.73 1605.55 -842.37 1604.57 C-843 1603.61 -843.64 1602.65 -844.3 1601.66 C-848.26 1595.61 -851.82 1589.52 -855.12 1583.08 C-857.25 1579.23 -859.84 1575.82 -862.48 1572.3 C-865.2 1568.55 -867.71 1564.68 -870.18 1560.76 C-870.63 1560.07 -871.07 1559.37 -871.53 1558.65 C-874.68 1553.62 -874.68 1553.62 -874.68 1550.26 C-875.34 1550.26 -876 1550.26 -876.68 1550.26 C-887.68 1534.25 -887.68 1534.25 -887.68 1527.26 C-888.34 1527.26 -889 1527.26 -889.68 1527.26 C-890.1 1526.42 -890.52 1525.58 -890.95 1524.71 C-892.13 1522.37 -893.31 1520.02 -894.51 1517.68 C-895.13 1516.46 -895.75 1515.23 -896.37 1514.01 C-896.69 1513.39 -897.01 1512.76 -897.34 1512.12 C-899.68 1507.49 -899.68 1507.49 -899.68 1505.26 C-900.34 1505.26 -901 1505.26 -901.68 1505.26 C-902.09 1504.27 -902.51 1503.28 -902.93 1502.26 C-905.28 1496.79 -907.98 1491.51 -910.83 1486.29 C-915.26 1478.17 -919.15 1470.1 -922.39 1461.43 C-923.59 1458.48 -925 1455.96 -926.68 1453.26 C-927.69 1450.93 -928.69 1448.6 -929.68 1446.26 C-930.67 1444.78 -930.67 1444.78 -931.68 1443.26 C-931.81 1440.57 -931.81 1440.57 -931.68 1438.26 C-932.34 1438.26 -933 1438.26 -933.68 1438.26 C-933.68 1437.27 -933.68 1436.28 -933.68 1435.26 C-934.34 1435.26 -935 1435.26 -935.68 1435.26 C-935.93 1434.46 -936.18 1433.65 -936.43 1432.82 C-937.33 1430.26 -938.26 1427.92 -939.39 1425.47 C-942.36 1418.85 -944.94 1412.09 -947.56 1405.32 C-947.82 1404.64 -948.09 1403.95 -948.36 1403.24 C-951.7 1394.61 -954.91 1385.97 -957.73 1377.16 C-959.25 1372.44 -960.99 1367.85 -962.87 1363.26 C-964.87 1358.37 -966.61 1353.52 -968.04 1348.43 C-968.63 1346.44 -969.37 1344.5 -970.12 1342.57 C-972.05 1337.58 -973.29 1332.4 -974.64 1327.23 C-975.65 1323.35 -976.72 1319.49 -977.81 1315.64 C-978.27 1313.98 -978.27 1313.98 -978.75 1312.28 C-979.61 1309.32 -979.61 1309.32 -980.71 1306.82 C-981.94 1303.58 -982.5 1300.36 -983.12 1296.95 C-983.89 1292.82 -984.68 1288.8 -986.24 1284.89 C-987.3 1282.21 -988.01 1280.04 -988.59 1277.28 C-989.81 1271.6 -991.19 1265.97 -992.56 1260.32 C-999.81 1230.13 -999.81 1230.13 -1001.19 1217.5 C-1001.59 1214.25 -1001.59 1214.25 -1002.7 1211.25 C-1004.1 1206.99 -1004.13 1202.84 -1004.34 1198.38 C-1004.68 1195.29 -1005.46 1193.1 -1006.68 1190.26 C-1008 1185.01 -1008.09 1179.63 -1008.4 1174.25 C-1008.35 1171.38 -1008.35 1171.38 -1009.68 1170.26 C-1009.94 1168.95 -1010.14 1167.63 -1010.31 1166.3 C-1010.43 1165.45 -1010.54 1164.6 -1010.66 1163.72 C-1010.78 1162.78 -1010.9 1161.85 -1011.02 1160.88 C-1011.15 1159.9 -1011.27 1158.92 -1011.4 1157.91 C-1020.64 1085.45 -1019.75 1011.17 -1016.22 938.28 C-1016.18 937.48 -1016.14 936.68 -1016.1 935.86 C-1015.74 929.14 -1015.31 922.37 -1013.68 915.82 C-1012.47 910.15 -1012.29 904.46 -1012.11 898.68 C-1011.94 894.13 -1011.17 890.59 -1009.68 886.26 C-1009.06 882.86 -1008.62 879.44 -1008.18 876.01 C-1007.36 869.8 -1006.43 863.68 -1005.11 857.55 C-1004.66 855.14 -1004.43 852.77 -1004.24 850.32 C-1003.94 846.79 -1003.28 843.65 -1002.24 840.26 C-1000.51 834.4 -999.94 828.53 -999.42 822.45 C-999.06 818.57 -998.51 815.68 -996.68 812.26 C-996.29 810.1 -995.96 807.94 -995.68 805.76 C-994.9 799.7 -994.9 799.7 -993.68 797.3 C-992.22 794.33 -992.02 791.4 -991.62 788.14 C-990.78 781.46 -990.78 781.46 -989.68 779.26 C-989.02 779.26 -988.36 779.26 -987.68 779.26 C-987.69 778.65 -987.7 778.03 -987.72 777.4 C-987.73 776.59 -987.73 775.78 -987.74 774.95 C-987.76 774.15 -987.77 773.35 -987.78 772.52 C-987.68 770.26 -987.68 770.26 -986.68 767.26 C-986.02 767.26 -985.36 767.26 -984.68 767.26 C-984.64 766.55 -984.61 765.84 -984.57 765.1 C-984.16 759.12 -983.14 754.76 -980.68 749.26 C-979.87 745.62 -979.25 741.95 -978.68 738.26 C-978.02 738.26 -977.36 738.26 -976.68 738.26 C-976.64 737.55 -976.61 736.84 -976.57 736.1 C-976.16 730.13 -975.17 725.74 -972.68 720.26 C-971.88 716.95 -971.26 713.62 -970.68 710.26 C-970.02 710.26 -969.36 710.26 -968.68 710.26 C-968.64 709.66 -968.61 709.05 -968.57 708.43 C-968.17 703.61 -967.68 701.1 -964.68 697.26 C-964.07 694.95 -963.62 692.64 -963.21 690.28 C-962.68 688.26 -962.68 688.26 -960.68 686.26 C-959.92 684.17 -959.92 684.17 -959.31 681.76 C-958.02 677.22 -956.39 672.94 -954.59 668.58 C-953.55 666.05 -953.55 666.05 -952.62 662.45 C-951.68 659.26 -951.68 659.26 -950.24 656.95 C-948.36 653.71 -947.51 650.52 -946.49 646.94 C-944.68 640.96 -942.15 635.25 -939.56 629.57 C-937.88 625.85 -936.71 622.21 -935.68 618.26 C-935.35 617.27 -935.02 616.28 -934.68 615.26 C-934.02 614.93 -933.36 614.6 -932.68 614.26 C-931.95 611.95 -931.28 609.61 -930.68 607.26 C-930.02 607.26 -929.36 607.26 -928.68 607.26 C-928.56 606.62 -928.44 605.98 -928.31 605.33 C-928.15 604.5 -927.98 603.67 -927.81 602.82 C-927.64 602 -927.48 601.18 -927.31 600.33 C-927.1 599.65 -926.9 598.96 -926.68 598.26 C-926.02 597.93 -925.36 597.6 -924.68 597.26 C-924.43 596.48 -924.19 595.69 -923.93 594.89 C-922.45 590.59 -920.34 586.89 -918.13 582.94 C-916.41 579.77 -915.03 576.6 -913.68 573.26 C-911.58 568.07 -909.08 563.27 -906.36 558.37 C-903.32 552.74 -900.52 547 -897.68 541.26 C-896.68 539.26 -895.68 537.26 -894.68 535.26 C-894 533.9 -893.32 532.54 -892.64 531.17 C-890.65 527.2 -888.67 523.23 -886.68 519.26 C-886.02 519.26 -885.36 519.26 -884.68 519.26 C-883.2 514.81 -883.2 514.81 -881.68 510.26 C-881.02 510.26 -880.36 510.26 -879.68 510.26 C-879.35 508.28 -879.02 506.3 -878.68 504.26 C-877.69 503.93 -876.7 503.6 -875.68 503.26 C-875.5 502.05 -875.5 502.05 -875.31 500.82 C-875.1 499.98 -874.89 499.13 -874.68 498.26 C-874.02 497.93 -873.36 497.6 -872.68 497.26 C-871.63 494.95 -870.62 492.62 -869.68 490.26 C-869.02 490.26 -868.36 490.26 -867.68 490.26 C-867.68 488.94 -867.68 487.62 -867.68 486.26 C-866.69 485.6 -865.7 484.94 -864.68 484.26 C-863.97 482.61 -863.31 480.94 -862.68 479.26 C-861.72 477.57 -860.71 475.91 -859.68 474.26 C-859.27 473.57 -858.87 472.88 -858.45 472.17 C-858.01 471.43 -857.57 470.7 -857.12 469.95 C-856.5 468.9 -856.5 468.9 -855.86 467.83 C-855.47 467.32 -855.08 466.8 -854.68 466.26 C-854.02 466.26 -853.36 466.26 -852.68 466.26 C-852.41 465.13 -852.14 463.99 -851.87 462.82 C-851.48 461.65 -851.08 460.47 -850.68 459.26 C-849.69 458.93 -848.7 458.6 -847.68 458.26 C-847.31 456.94 -846.97 455.6 -846.68 454.26 C-846.02 453.93 -845.36 453.6 -844.68 453.26 C-843.63 451.46 -842.64 449.62 -841.68 447.76 C-838.9 442.37 -838.9 442.37 -836.68 441.26 C-836.35 440.27 -836.02 439.28 -835.68 438.26 C-834.97 437.58 -834.97 437.58 -834.24 436.89 C-832.32 434.88 -831.69 432.83 -830.68 430.26 C-830.02 429.93 -829.36 429.6 -828.68 429.26 C-827.63 427.29 -826.63 425.29 -825.68 423.26 C-825.02 423.26 -824.36 423.26 -823.68 423.26 C-823.02 421.61 -822.36 419.96 -821.68 418.26 C-821.02 418.26 -820.36 418.26 -819.68 418.26 C-819.56 417.62 -819.43 416.98 -819.31 416.32 C-819.1 415.64 -818.89 414.96 -818.68 414.26 C-818.02 413.93 -817.36 413.6 -816.68 413.26 C-816.35 412.27 -816.02 411.28 -815.68 410.26 C-815.02 410.26 -814.36 410.26 -813.68 410.26 C-813.43 409.31 -813.19 408.36 -812.93 407.39 C-811.51 403.83 -810.96 403.74 -807.68 402.26 C-807.03 400.24 -807.03 400.24 -806.68 398.26 C-806.02 397.93 -805.36 397.6 -804.68 397.26 C-803.66 395.6 -802.67 393.94 -801.68 392.26 C-800.36 390.47 -799 388.7 -797.62 386.95 C-796.93 386.07 -796.23 385.18 -795.52 384.27 C-794.61 383.28 -794.61 383.28 -793.68 382.26 C-793.02 382.26 -792.36 382.26 -791.68 382.26 C-791.56 381.62 -791.43 380.98 -791.31 380.32 C-791.1 379.64 -790.89 378.96 -790.68 378.26 C-790.02 377.93 -789.36 377.6 -788.68 377.26 C-788.35 376.27 -788.02 375.28 -787.68 374.26 C-786.68 373.26 -785.68 372.26 -784.68 371.26 C-784.39 370.64 -784.1 370.02 -783.81 369.39 C-782.25 366.44 -780.14 364.48 -777.68 362.26 C-777.02 362.26 -776.36 362.26 -775.68 362.26 C-775.02 360.94 -774.36 359.62 -773.68 358.26 C-773.02 358.26 -772.36 358.26 -771.68 358.26 C-771.39 357.68 -771.1 357.11 -770.81 356.51 C-770.43 355.77 -770.06 355.03 -769.68 354.26 C-769.37 353.56 -769.06 352.86 -768.74 352.14 C-767.68 350.26 -767.68 350.26 -764.68 348.26 C-763.65 346.61 -762.66 344.94 -761.68 343.26 C-759.62 340.45 -759.62 340.45 -757.68 338.26 C-757.02 338.26 -756.36 338.26 -755.68 338.26 C-755.34 337.39 -755.34 337.39 -754.99 336.51 C-752.94 333 -750.25 330.77 -746.37 329.51 C-745.81 329.43 -745.25 329.35 -744.68 329.26 C-744.35 327.94 -744.02 326.62 -743.68 325.26 C-742.69 325.26 -741.7 325.26 -740.68 325.26 C-740.58 324.66 -740.47 324.06 -740.37 323.45 C-739.58 320.95 -738.55 320.05 -736.68 318.26 C-736.35 317.27 -736.02 316.28 -735.68 315.26 C-733.62 314.57 -733.62 314.57 -731.68 314.26 C-731.35 312.94 -731.02 311.62 -730.68 310.26 C-729.69 310.26 -728.7 310.26 -727.68 310.26 C-727.68 309.27 -727.68 308.28 -727.68 307.26 C-727.06 307.18 -726.44 307.1 -725.81 307.01 C-723.5 306.45 -723.5 306.45 -722.43 304.2 C-722.18 303.56 -721.94 302.92 -721.68 302.26 C-721.02 302.26 -720.36 302.26 -719.68 302.26 C-719.02 300.94 -718.36 299.62 -717.68 298.26 C-717.02 298.26 -716.36 298.26 -715.68 298.26 C-715.02 296.94 -714.36 295.62 -713.68 294.26 C-713.02 294.26 -712.36 294.26 -711.68 294.26 C-711.35 292.94 -711.02 291.62 -710.68 290.26 C-709.69 290.26 -708.7 290.26 -707.68 290.26 C-707.35 288.94 -707.02 287.62 -706.68 286.26 C-705.69 286.26 -704.7 286.26 -703.68 286.26 C-703.35 284.94 -703.02 283.62 -702.68 282.26 C-701.69 282.26 -700.7 282.26 -699.68 282.26 C-699.35 280.94 -699.02 279.62 -698.68 278.26 C-697.69 278.26 -696.7 278.26 -695.68 278.26 C-695.02 276.94 -694.36 275.62 -693.68 274.26 C-693.02 274.26 -692.36 274.26 -691.68 274.26 C-691.02 272.94 -690.36 271.62 -689.68 270.26 C-689.02 270.26 -688.36 270.26 -687.68 270.26 C-687.35 268.94 -687.02 267.62 -686.68 266.26 C-685.69 266.26 -684.7 266.26 -683.68 266.26 C-683.02 264.94 -682.36 263.62 -681.68 262.26 C-681.02 262.26 -680.36 262.26 -679.68 262.26 C-679.45 261.67 -679.22 261.08 -678.98 260.48 C-677.35 257.7 -675.56 256.57 -672.87 254.82 C-669.89 252.83 -667.18 250.96 -664.74 248.32 C-664.06 247.64 -663.38 246.96 -662.68 246.26 C-661.69 246.26 -660.7 246.26 -659.68 246.26 C-659.35 244.94 -659.02 243.62 -658.68 242.26 C-657.69 242.26 -656.7 242.26 -655.68 242.26 C-655.68 241.27 -655.68 240.28 -655.68 239.26 C-655.08 238.99 -654.48 238.72 -653.87 238.45 C-651.66 237.39 -651.66 237.39 -650.18 235.76 C-648.5 234.08 -646.8 233.32 -644.68 232.26 C-644.35 231.6 -644.02 230.94 -643.68 230.26 C-642.02 229.25 -640.35 228.26 -638.68 227.26 C-636.58 225.69 -634.51 224.09 -632.45 222.47 C-630.68 221.26 -630.68 221.26 -628.68 221.26 C-628.41 220.66 -628.14 220.06 -627.87 219.45 C-625.97 215.95 -624.48 214.53 -620.68 213.26 C-620.02 212.27 -619.36 211.28 -618.68 210.26 C-617.69 210.26 -616.7 210.26 -615.68 210.26 C-615.58 209.62 -615.47 208.98 -615.37 208.32 C-615.14 207.64 -614.91 206.96 -614.68 206.26 C-613.69 205.93 -612.7 205.6 -611.68 205.26 C-610.66 204.28 -609.66 203.28 -608.68 202.26 C-604.22 198.26 -604.22 198.26 -599.68 198.26 C-599.68 197.27 -599.68 196.28 -599.68 195.26 C-598.03 194.93 -596.38 194.6 -594.68 194.26 C-594.35 193.27 -594.02 192.28 -593.68 191.26 C-591.5 189.66 -591.5 189.66 -588.81 188.07 C-587.92 187.54 -587.04 187.01 -586.13 186.47 C-583.68 185.26 -583.68 185.26 -580.68 185.26 C-580.35 184.27 -580.02 183.28 -579.68 182.26 C-575.86 178.68 -569.15 173.26 -563.68 173.26 C-563.35 172.27 -563.02 171.28 -562.68 170.26 C-561.69 170.26 -560.7 170.26 -559.68 170.26 C-559.35 169.27 -559.02 168.28 -558.68 167.26 C-556.69 166.57 -554.69 165.9 -552.68 165.26 C-551.66 164.28 -550.66 163.28 -549.68 162.26 C-548.69 162.26 -547.7 162.26 -546.68 162.26 C-546.35 161.27 -546.02 160.28 -545.68 159.26 C-543.72 158.19 -541.71 157.2 -539.68 156.26 C-537.15 154.82 -534.84 153.38 -532.56 151.57 C-530.68 150.26 -530.68 150.26 -527.68 150.26 C-527.34 149.33 -527.34 149.33 -526.99 148.39 C-525.3 145.64 -523.66 145.33 -520.68 144.26 C-520.35 143.6 -520.02 142.94 -519.68 142.26 C-518.36 142.26 -517.04 142.26 -515.68 142.26 C-515.35 141.27 -515.02 140.28 -514.68 139.26 C-509.56 136.7 -504.13 135 -498.68 133.26 C-498.68 132.6 -498.68 131.94 -498.68 131.26 C-497.21 130.53 -497.21 130.53 -495.71 129.79 C-488.55 126.24 -481.42 122.64 -474.37 118.89 C-473.74 118.55 -473.11 118.22 -472.47 117.88 C-469.78 116.44 -467.22 114.95 -464.68 113.26 C-463.36 113.26 -462.04 113.26 -460.68 113.26 C-460.68 112.6 -460.68 111.94 -460.68 111.26 C-457.59 109.5 -456.45 109.26 -452.68 109.26 C-452.68 108.6 -452.68 107.94 -452.68 107.26 C-450.98 106.55 -450.98 106.55 -449.24 105.82 C-443.64 103.35 -438.27 100.44 -432.89 97.52 C-428.56 95.19 -424.22 93.15 -419.68 91.26 C-416.89 89.97 -414.11 88.66 -411.33 87.35 C-408.77 86.3 -406.41 85.7 -403.68 85.26 C-403.68 84.6 -403.68 83.94 -403.68 83.26 C-403.14 83.07 -402.6 82.87 -402.04 82.67 C-401.32 82.41 -400.61 82.15 -399.87 81.89 C-399.16 81.63 -398.45 81.38 -397.72 81.11 C-395.43 80.23 -395.43 80.23 -392.68 78.26 C-391.28 77.72 -389.86 77.22 -388.43 76.76 C-387.64 76.51 -386.85 76.25 -386.03 75.99 C-382.15 74.79 -378.28 73.6 -374.31 72.76 C-373.77 72.6 -373.23 72.43 -372.68 72.26 C-372.35 71.6 -372.02 70.94 -371.68 70.26 C-370.04 69.58 -370.04 69.58 -367.87 68.95 C-364.04 67.75 -360.37 66.34 -356.68 64.76 C-349.21 61.6 -341.65 59.2 -333.84 57.01 C-331.43 56.28 -331.43 56.28 -328.68 54.26 C-326.42 53.85 -326.42 53.85 -323.99 53.64 C-323.19 53.56 -322.38 53.49 -321.54 53.41 C-320.93 53.36 -320.31 53.31 -319.68 53.26 C-319.68 52.6 -319.68 51.94 -319.68 51.26 C-316.72 49.78 -313.94 50.2 -310.68 50.26 C-310.68 49.6 -310.68 48.94 -310.68 48.26 C-306.59 46.35 -302.5 45.59 -298.08 44.82 C-295.69 44.36 -295.69 44.36 -293.7 43.26 C-291.29 42.07 -289.14 41.72 -286.49 41.32 C-281.33 40.44 -276.6 39.05 -271.68 37.26 C-265.81 35.13 -260.16 33.7 -253.97 32.79 C-251.5 32.43 -251.5 32.43 -249.68 30.26 C-247.26 29.7 -247.26 29.7 -244.37 29.26 C-241.47 28.82 -238.98 28.39 -236.28 27.24 C-232.95 25.99 -229.92 25.83 -226.37 25.64 C-225.11 25.56 -223.86 25.49 -222.57 25.41 C-221.62 25.36 -220.66 25.31 -219.68 25.26 C-219.68 24.6 -219.68 23.94 -219.68 23.26 C-218.53 23.07 -217.39 22.87 -216.21 22.67 C-214.68 22.41 -213.15 22.15 -211.62 21.89 C-210.87 21.76 -210.11 21.63 -209.34 21.5 C-205.85 20.9 -202.53 20.22 -199.13 19.22 C-194.6 17.96 -190.13 17.52 -185.47 17.05 C-182.57 16.73 -179.98 16.39 -177.28 15.26 C-173.37 13.76 -169.4 13.61 -165.24 13.26 C-158.91 12.79 -158.91 12.79 -152.77 11.26 C-147.25 9.47 -141.41 9.46 -135.65 9.05 C-134.7 8.98 -133.75 8.9 -132.77 8.82 C-131.91 8.76 -131.06 8.7 -130.17 8.64 C-127.65 8.36 -127.65 8.36 -125.35 7.26 C-121.89 5.97 -118.57 5.84 -114.92 5.7 C-114.18 5.66 -113.44 5.62 -112.67 5.59 C-110.3 5.47 -107.93 5.36 -105.56 5.26 C-103.21 5.16 -100.86 5.05 -98.51 4.93 C-97.05 4.86 -95.59 4.8 -94.14 4.74 C-90.22 4.55 -86.51 4.07 -82.67 3.29 C-75.28 1.89 -67.83 1.53 -60.34 1.15 C-59.55 1.11 -58.76 1.07 -57.95 1.02 C-38.64 0.02 -19.33 -0.05 0 0 Z " fill="#D4AF37" transform="translate(1017.680908203125,-0.2607421875)"/>
<path d="M0 0 C2.16 1.32 4.35 2.49 6.59 3.66 C16.63 9.29 24.73 16.59 32.84 24.66 C33.63 25.45 34.43 26.24 35.25 27.06 C38.52 30.37 41.23 33.12 43.21 37.35 C43.75 37.89 44.29 38.42 44.84 38.98 C45.29 39.43 45.75 39.88 46.21 40.35 C46.21 41.01 46.21 41.67 46.21 42.35 C47.2 42.68 48.19 43.01 49.21 43.35 C50.44 44.77 50.44 44.77 51.63 46.61 C52.08 47.29 52.52 47.97 52.98 48.67 C53.45 49.41 53.92 50.15 54.4 50.91 C55.13 52.06 55.13 52.06 55.88 53.23 C60.55 60.68 64.57 68.35 68.21 76.35 C68.76 77.53 69.3 78.7 69.86 79.91 C85.78 116.75 87.65 164.71 73.09 202.25 C69.18 211.81 64.94 221.18 60.06 230.28 C58.94 232.43 58.94 232.43 59.96 235.1 C62.45 237.58 65.03 239.85 67.79 242.02 C68.49 242.68 68.49 242.68 69.21 243.35 C69.21 244.01 69.21 244.67 69.21 245.35 C69.81 245.62 70.41 245.89 71.03 246.16 C73.24 247.37 74.5 248.49 76.17 250.36 C76.7 250.95 77.23 251.54 77.78 252.15 C78.34 252.77 78.89 253.4 79.46 254.04 C83.68 258.7 87.89 263.09 92.82 267.02 C94.21 268.35 94.21 268.35 95.21 271.35 C97.22 272.56 97.22 272.56 99.21 273.35 C99.21 274.01 99.21 274.67 99.21 275.35 C100.2 275.68 101.19 276.01 102.21 276.35 C102.21 277.01 102.21 277.67 102.21 278.35 C103.05 278.69 103.05 278.69 103.9 279.04 C106.88 280.73 108.93 282.82 111.21 285.35 C111.21 286.01 111.21 286.67 111.21 287.35 C111.87 287.35 112.53 287.35 113.21 287.35 C114.65 288.85 114.65 288.85 116.21 290.79 C118.36 293.5 118.36 293.5 121.21 295.35 C121.21 296.01 121.21 296.67 121.21 297.35 C122.53 298.01 123.85 298.67 125.21 299.35 C125.21 300.01 125.21 300.67 125.21 301.35 C125.87 301.35 126.53 301.35 127.21 301.35 C127.21 302.01 127.21 302.67 127.21 303.35 C127.87 303.35 128.53 303.35 129.21 303.35 C129.75 304.03 130.29 304.71 130.84 305.41 C132.79 307.82 134.53 309.56 136.86 311.54 C141.19 315.28 145.25 319.23 149.28 323.29 C149.95 323.95 150.61 324.62 151.3 325.3 C155.29 329.3 159.09 333.41 162.77 337.69 C163.87 338.95 165.03 340.17 166.21 341.35 C170.43 341.2 173.33 338.14 176.21 335.35 C177.92 333.47 179.56 331.55 181.21 329.62 C184.99 325.34 188.95 321.16 193.21 317.35 C193.87 317.35 194.53 317.35 195.21 317.35 C195.21 316.69 195.21 316.03 195.21 315.35 C195.87 315.35 196.53 315.35 197.21 315.35 C197.54 314.36 197.87 313.37 198.21 312.35 C200.15 310.16 200.15 310.16 202.21 308.35 C202.87 308.35 203.53 308.35 204.21 308.35 C204.48 307.76 204.74 307.17 205.02 306.57 C206.26 304.27 207.56 302.74 209.4 300.9 C210.02 300.28 210.63 299.66 211.27 299.02 C211.91 298.39 212.55 297.75 213.21 297.1 C213.86 296.45 214.5 295.8 215.16 295.13 C215.78 294.52 216.39 293.91 217.03 293.27 C217.59 292.71 218.15 292.15 218.73 291.57 C220.21 290.35 220.21 290.35 222.21 290.35 C222.56 289.49 222.56 289.49 222.9 288.6 C224.56 285.76 226.64 284.42 229.21 282.35 C230.36 281.08 231.48 279.78 232.59 278.48 C235.34 275.24 238.23 272.55 241.51 269.87 C243.95 267.7 245.93 265.23 247.95 262.67 C248.37 262.24 248.79 261.8 249.21 261.35 C249.87 261.35 250.53 261.35 251.21 261.35 C251.54 260.36 251.87 259.37 252.21 258.35 C252.87 258.35 253.53 258.35 254.21 258.35 C254.6 257.48 254.6 257.48 254.99 256.59 C256.34 254.12 257.85 252.46 259.84 250.46 C260.55 249.75 261.25 249.04 261.98 248.31 C262.72 247.58 263.46 246.85 264.21 246.1 C264.95 245.36 265.69 244.61 266.45 243.84 C267.16 243.14 267.86 242.44 268.59 241.71 C269.24 241.07 269.88 240.42 270.55 239.76 C272.21 238.35 272.21 238.35 274.21 238.35 C274.44 237.8 274.67 237.25 274.9 236.68 C276.6 233.66 278.76 231.54 281.21 229.1 C282.1 228.21 282.99 227.32 283.9 226.4 C286.21 224.35 286.21 224.35 288.21 224.35 C288.21 223.69 288.21 223.03 288.21 222.35 C291.03 219.23 293.49 217.21 297.21 215.35 C297.54 214.36 297.87 213.37 298.21 212.35 C302.53 207.58 302.53 207.58 306.21 206.35 C306.92 205.04 307.58 203.7 308.21 202.35 C309.58 200.73 309.58 200.73 311.16 199.14 C311.76 198.54 312.35 197.94 312.96 197.32 C313.92 196.37 313.92 196.37 314.9 195.4 C315.56 194.74 316.22 194.08 316.9 193.4 C318.29 192.01 319.68 190.62 321.07 189.23 C323.21 187.1 325.34 184.96 327.47 182.82 C328.82 181.47 330.18 180.12 331.53 178.77 C332.49 177.81 332.49 177.81 333.47 176.82 C337.98 172.35 337.98 172.35 340.21 172.35 C340.44 171.77 340.67 171.2 340.9 170.6 C342.54 167.79 344.65 166.32 347.21 164.35 C347.54 163.69 347.87 163.03 348.21 162.35 C348.87 162.35 349.53 162.35 350.21 162.35 C350.87 161.03 351.53 159.71 352.21 158.35 C352.87 158.35 353.53 158.35 354.21 158.35 C354.42 157.82 354.62 157.3 354.83 156.75 C356.82 153.31 359.58 150.73 362.39 147.96 C363.03 147.33 363.66 146.7 364.31 146.05 C366.4 143.97 368.5 141.89 370.59 139.81 C372.05 138.37 373.5 136.92 374.95 135.47 C378.77 131.66 382.6 127.86 386.43 124.06 C392.56 117.97 398.68 111.88 404.81 105.78 C406.95 103.64 409.1 101.52 411.24 99.39 C412.55 98.08 413.86 96.78 415.17 95.48 C415.77 94.89 416.37 94.29 416.99 93.68 C419.97 90.8 419.97 90.8 422.21 87.35 C422.87 87.35 423.53 87.35 424.21 87.35 C424.21 86.69 424.21 86.03 424.21 85.35 C425.57 84.05 425.57 84.05 427.4 82.6 C429.9 80.55 432.02 78.51 434.03 75.98 C434.75 75.11 435.47 74.24 436.21 73.35 C436.87 73.35 437.53 73.35 438.21 73.35 C438.21 72.69 438.21 72.03 438.21 71.35 C438.87 71.35 439.53 71.35 440.21 71.35 C440.21 70.69 440.21 70.03 440.21 69.35 C440.9 68.82 441.58 68.28 442.28 67.73 C445.53 65.09 448.01 62.18 450.66 58.96 C451.18 58.43 451.69 57.9 452.21 57.35 C452.87 57.35 453.53 57.35 454.21 57.35 C454.21 56.69 454.21 56.03 454.21 55.35 C455.53 54.07 455.53 54.07 457.43 52.52 C461.22 49.3 464.72 45.89 468.18 42.34 C468.98 41.53 468.98 41.53 469.79 40.71 C471.99 38.46 474.19 36.21 476.37 33.95 C486.41 23.57 496.22 16.5 511.34 16.04 C520.85 16.81 527.23 19.08 535.21 24.35 C536.14 24.87 537.06 25.39 538.01 25.92 C538.74 26.39 539.46 26.86 540.21 27.35 C540.21 28.01 540.21 28.67 540.21 29.35 C540.87 29.35 541.53 29.35 542.21 29.35 C543.65 31.35 544.95 33.31 546.21 35.41 C546.57 35.98 546.93 36.54 547.29 37.12 C553.14 46.66 553.65 57.23 551.15 67.98 C547.9 78.44 540.56 88.47 531.21 94.35 C530.55 94.35 529.89 94.35 529.21 94.35 C528.97 94.91 528.72 95.47 528.46 96.04 C526.99 98.78 525.28 101.03 523.21 103.35 C522.55 103.35 521.89 103.35 521.21 103.35 C521.21 104.01 521.21 104.67 521.21 105.35 C519.85 106.66 519.85 106.66 517.9 108.23 C513.62 111.85 509.9 115.83 506.16 120 C503.27 123.22 500.38 126.4 497.21 129.35 C496.55 129.35 495.89 129.35 495.21 129.35 C494.84 130.22 494.84 130.22 494.46 131.11 C493.05 133.64 491.5 135.19 489.37 137.14 C488.62 137.83 487.87 138.53 487.09 139.24 C486.31 139.96 485.52 140.68 484.71 141.41 C483.16 142.84 481.61 144.27 480.06 145.7 C479.37 146.33 478.68 146.96 477.97 147.61 C476.02 149.43 476.02 149.43 474.21 152.35 C473.55 152.35 472.89 152.35 472.21 152.35 C472.21 153.01 472.21 153.67 472.21 154.35 C470.84 155.7 470.84 155.7 468.88 157.31 C463.47 161.91 458.52 166.93 453.53 171.98 C452.14 173.37 452.14 173.37 450.73 174.79 C449.01 176.51 447.3 178.24 445.58 179.97 C443.13 182.43 440.67 184.89 438.21 187.35 C437.61 187.96 437 188.57 436.37 189.2 C417.32 208.25 398.27 227.3 379.21 246.35 C378.01 247.56 378.01 247.56 376.78 248.79 C374 251.57 371.21 254.35 368.43 257.12 C362.81 262.73 357.18 268.34 351.56 273.95 C348.16 277.34 344.77 280.73 341.37 284.12 C338.07 287.41 334.78 290.69 331.49 293.98 C330.24 295.23 328.98 296.49 327.72 297.74 C325.97 299.48 324.23 301.23 322.48 302.97 C321.96 303.49 321.44 304.01 320.9 304.54 C318.22 307.19 318.22 307.19 316.21 310.35 C315.55 310.35 314.89 310.35 314.21 310.35 C314.21 311.01 314.21 311.67 314.21 312.35 C312.74 313.8 312.74 313.8 310.71 315.49 C306.37 319.18 302.33 323.1 298.32 327.14 C297.57 327.88 296.83 328.62 296.06 329.39 C293.63 331.83 291.2 334.26 288.77 336.7 C287.06 338.41 285.36 340.11 283.66 341.82 C279.19 346.29 274.73 350.76 270.26 355.24 C265.72 359.79 261.18 364.33 256.63 368.88 C249.3 376.23 241.97 383.57 234.63 390.92 C231.9 393.66 229.17 396.4 226.43 399.13 C224.68 400.88 222.94 402.64 221.2 404.4 C218.28 407.36 215.34 410.31 212.41 413.26 C211.15 414.54 209.89 415.81 208.63 417.09 C206.8 418.94 204.97 420.78 203.14 422.62 C202.58 423.2 202.01 423.77 201.43 424.36 C200.06 425.73 198.64 427.05 197.21 428.35 C196.55 428.35 195.89 428.35 195.21 428.35 C194.99 428.9 194.76 429.45 194.53 430.02 C192.83 433.04 190.67 435.16 188.21 437.6 C187.33 438.49 186.44 439.39 185.53 440.3 C183.21 442.35 183.21 442.35 181.21 442.35 C181.21 443.01 181.21 443.67 181.21 444.35 C180.55 444.35 179.89 444.35 179.21 444.35 C178.91 445.19 178.91 445.19 178.59 446.04 C177.25 448.3 176.16 449.35 174.15 450.98 C171.21 453.02 171.21 453.02 170.21 455.35 C169.55 455.35 168.89 455.35 168.21 455.35 C168.21 456.01 168.21 456.67 168.21 457.35 C167.55 457.35 166.89 457.35 166.21 457.35 C166.21 458.01 166.21 458.67 166.21 459.35 C163.98 461.84 162.06 463.94 159.03 465.41 C156.66 466.64 156.3 467.96 155.21 470.35 C153.71 472.1 153.71 472.1 152.21 473.35 C151.55 473.35 150.89 473.35 150.21 473.35 C149.88 474.34 149.55 475.33 149.21 476.35 C148.55 476.35 147.89 476.35 147.21 476.35 C146.88 477.34 146.55 478.33 146.21 479.35 C145.55 479.35 144.89 479.35 144.21 479.35 C143.87 480.19 143.87 480.19 143.53 481.04 C141.28 485 138 487.73 134.46 490.54 C132.14 492.15 132.14 492.15 131.21 494.35 C130.55 494.35 129.89 494.35 129.21 494.35 C128.87 495.19 128.87 495.19 128.53 496.04 C126.84 499.01 124.75 501.07 122.21 503.35 C121.55 503.35 120.89 503.35 120.21 503.35 C120.21 504.01 120.21 504.67 120.21 505.35 C119.55 505.35 118.89 505.35 118.21 505.35 C118.21 506.01 118.21 506.67 118.21 507.35 C116.85 508.66 116.85 508.66 114.9 510.23 C111.29 513.29 108.06 516.59 104.9 520.1 C99.54 526.06 93.93 531.72 88.21 537.35 C87.66 537.95 87.1 538.55 86.53 539.16 C85.21 540.35 85.21 540.35 83.21 540.35 C82.81 541.31 82.81 541.31 82.4 542.29 C81.21 544.35 81.21 544.35 78.21 545.35 C78.21 546.01 78.21 546.67 78.21 547.35 C76.6 549.12 74.97 550.72 73.21 552.35 C72.39 553.12 71.57 553.89 70.73 554.68 C63.48 561.35 63.48 561.35 61.21 561.35 C59.39 565.61 59.39 565.61 60.01 570.07 C60.49 570.99 60.97 571.9 61.47 572.84 C61.99 573.87 62.51 574.9 63.05 575.96 C63.62 577.03 64.19 578.11 64.78 579.23 C69.62 588.85 73.57 597.91 76.21 608.35 C76.39 609.03 76.57 609.71 76.76 610.41 C83.35 635.41 84.39 660.98 79.21 686.35 C78.98 687.61 78.74 688.87 78.49 690.17 C72.81 718.57 59.56 747.34 39.21 768.35 C38.55 768.35 37.89 768.35 37.21 768.35 C37.21 769.01 37.21 769.67 37.21 770.35 C36.55 770.35 35.89 770.35 35.21 770.35 C35 770.89 34.79 771.42 34.57 771.97 C19.87 797.84 -20.73 813.85 -47.79 821.35 C-73.56 827.63 -103.06 828.06 -128.79 821.35 C-129.48 821.17 -130.18 821 -130.91 820.82 C-155.49 814.43 -177.96 802.11 -197.56 786.15 C-199.03 784.96 -200.53 783.83 -202.07 782.74 C-202.64 782.28 -203.2 781.82 -203.79 781.35 C-203.79 780.69 -203.79 780.03 -203.79 779.35 C-204.38 779.08 -204.97 778.81 -205.59 778.54 C-215.56 773.17 -224.37 760.02 -229.79 750.35 C-229.79 749.69 -229.79 749.03 -229.79 748.35 C-230.45 748.35 -231.11 748.35 -231.79 748.35 C-258.05 703.28 -265.66 658.69 -253.38 607.6 C-250.19 595.51 -244.64 584.34 -238.79 573.35 C-238.47 572.75 -238.15 572.14 -237.82 571.52 C-229.81 556.29 -212.87 529.05 -195.79 523.35 C-195.13 522.36 -194.47 521.37 -193.79 520.35 C-192.8 520.02 -191.81 519.69 -190.79 519.35 C-190.46 518.69 -190.13 518.03 -189.79 517.35 C-188.8 517.35 -187.81 517.35 -186.79 517.35 C-186.79 516.69 -186.79 516.03 -186.79 515.35 C-185.4 514.24 -185.4 514.24 -183.45 513.03 C-182.36 512.36 -182.36 512.36 -181.25 511.67 C-180.06 510.96 -180.06 510.96 -178.85 510.23 C-178.04 509.74 -177.22 509.25 -176.39 508.74 C-157.96 497.8 -138.87 491.03 -117.79 487.35 C-116.24 487.08 -116.24 487.08 -114.67 486.81 C-105.43 485.33 -96.42 484.99 -87.1 485.04 C-85.98 485.04 -85.98 485.04 -84.84 485.04 C-73.26 485.09 -62.08 485.67 -50.79 488.35 C-49.69 488.6 -49.69 488.6 -48.57 488.86 C-32.89 492.52 -17.62 498.33 -4.13 507.2 C-1.9 508.55 -1.9 508.55 0.36 508.13 C6.2 505.68 9.68 501.92 13.6 497.06 C15.21 495.35 15.21 495.35 18.21 494.35 C18.21 493.69 18.21 493.03 18.21 492.35 C18.87 492.35 19.53 492.35 20.21 492.35 C20.48 491.76 20.74 491.17 21.01 490.56 C22.27 488.25 23.56 486.83 25.46 485.04 C27.91 482.67 30.21 480.27 32.4 477.66 C34.57 475.1 36.71 472.59 39.21 470.35 C39.87 470.35 40.53 470.35 41.21 470.35 C41.21 469.69 41.21 469.03 41.21 468.35 C42.86 466.66 42.86 466.66 45.03 464.79 C45.74 464.17 46.44 463.55 47.17 462.91 C49.21 461.35 49.21 461.35 52.21 460.35 C52.21 459.69 52.21 459.03 52.21 458.35 C53.83 456.64 55.51 454.98 57.21 453.35 C60.77 449.88 60.77 449.88 63.9 446.04 C64.34 445.48 64.77 444.93 65.21 444.35 C65.87 444.35 66.53 444.35 67.21 444.35 C67.21 443.69 67.21 443.03 67.21 442.35 C68.72 440.84 68.72 440.84 70.78 439.1 C71.5 438.48 72.23 437.87 72.97 437.23 C73.71 436.61 74.45 435.99 75.21 435.35 C76.53 434.25 77.84 433.15 79.15 432.04 C79.72 431.57 80.28 431.1 80.87 430.61 C82.35 429.37 82.35 429.37 83.21 427.35 C83.87 427.35 84.53 427.35 85.21 427.35 C85.43 426.81 85.65 426.26 85.87 425.7 C87.68 422.54 90.17 420.22 92.78 417.73 C96.44 414.39 96.44 414.39 99.21 410.35 C99.87 410.35 100.53 410.35 101.21 410.35 C101.21 409.69 101.21 409.03 101.21 408.35 C102 407.75 102.78 407.16 103.59 406.54 C106.4 404.2 107.24 402.82 108.21 399.35 C108.21 398.36 108.21 397.37 108.21 396.35 C106.56 395.69 104.91 395.03 103.21 394.35 C103.21 393.69 103.21 393.03 103.21 392.35 C102.34 391.97 102.34 391.97 101.44 391.58 C99 390.23 97.5 388.79 95.61 386.75 C94.94 386.04 94.27 385.32 93.58 384.59 C92.88 383.83 92.18 383.07 91.46 382.29 C90.75 381.52 90.03 380.75 89.29 379.96 C85.67 376.06 82.12 372.13 78.65 368.1 C76 365.06 73.31 362.88 69.95 360.67 C67.16 358.55 65.03 355.9 62.79 353.22 C61.26 351.33 61.26 351.33 59.51 349.73 C58.21 348.35 58.21 348.35 58.21 346.35 C57.55 346.35 56.89 346.35 56.21 346.35 C54.53 344.37 52.86 342.37 51.21 340.35 C50.55 340.02 49.89 339.69 49.21 339.35 C49.21 338.69 49.21 338.03 49.21 337.35 C48.64 337.1 48.06 336.86 47.47 336.6 C44.88 335.16 43.19 333.49 41.15 331.35 C38.88 328.98 36.97 327.19 34.21 325.35 C34.21 324.69 34.21 324.03 34.21 323.35 C33.22 323.02 32.23 322.69 31.21 322.35 C29.46 320.54 29.46 320.54 27.65 318.35 C25.29 315.4 25.29 315.4 22.21 313.35 C22.21 312.69 22.21 312.03 22.21 311.35 C21.38 311.01 21.38 311.01 20.53 310.66 C17.55 308.98 15.49 306.88 13.21 304.35 C13.21 303.69 13.21 303.03 13.21 302.35 C12.22 302.02 11.23 301.69 10.21 301.35 C8.71 299.83 8.71 299.83 7.21 297.98 C6.22 296.76 5.22 295.55 4.21 294.35 C3.74 293.76 3.27 293.17 2.78 292.56 C1.31 291.15 1.31 291.15 -0.57 291.44 C-3.61 292.69 -6.43 294.3 -9.29 295.91 C-51.13 318.74 -97.41 320.01 -142.63 307.31 C-149.34 305.28 -155.56 302.56 -161.79 299.35 C-162.68 298.89 -162.68 298.89 -163.6 298.43 C-169.53 295.39 -175.39 292.28 -180.79 288.35 C-180.79 287.69 -180.79 287.03 -180.79 286.35 C-181.59 286.24 -181.59 286.24 -182.41 286.12 C-192.33 282.9 -201.8 271.96 -209.24 264.83 C-210.71 263.42 -212.2 262.03 -213.7 260.64 C-244.54 231.09 -258.85 187.13 -259.77 145.38 C-260.12 113.29 -250.23 82.33 -233.8 55.05 C-232.88 53.5 -231.98 51.94 -231.09 50.38 C-225.18 40.44 -216.93 32.47 -208.79 24.35 C-208.07 23.61 -207.35 22.87 -206.61 22.11 C-202.04 17.42 -197.41 12.79 -191.79 9.35 C-191.13 9.35 -190.47 9.35 -189.79 9.35 C-189.79 8.69 -189.79 8.03 -189.79 7.35 C-186.79 5.35 -186.79 5.35 -183.79 5.35 C-183.79 4.69 -183.79 4.03 -183.79 3.35 C-125.99 -29.55 -58.4 -36.34 0 0 Z " fill="#171717" transform="translate(856.78515625,639.6484375)"/>
<path d="M0 0 C2.35 1.69 4.31 3.43 6.23 5.6 C6.23 6.26 6.23 6.92 6.23 7.6 C6.85 7.85 7.46 8.09 8.1 8.35 C10.58 9.8 11.18 10.98 12.23 13.6 C12.89 13.6 13.55 13.6 14.23 13.6 C14.23 14.26 14.23 14.92 14.23 15.6 C14.89 15.6 15.55 15.6 16.23 15.6 C17.74 17.17 17.74 17.17 19.48 19.29 C21.65 21.84 23.63 23.94 26.23 26.1 C28.69 28.15 30.55 30.05 32.6 32.47 C34.86 35.12 37.13 37.48 39.79 39.72 C43.96 43.26 47.84 47.06 51.73 50.91 C52.68 51.85 52.68 51.85 53.65 52.8 C54.54 53.68 54.54 53.68 55.45 54.59 C55.98 55.12 56.52 55.65 57.07 56.2 C58.23 57.6 58.23 57.6 58.23 59.6 C58.89 59.6 59.55 59.6 60.23 59.6 C60.23 60.26 60.23 60.92 60.23 61.6 C60.85 61.85 61.46 62.09 62.1 62.35 C64.58 63.8 65.18 64.98 66.23 67.6 C66.89 67.6 67.55 67.6 68.23 67.6 C68.23 68.26 68.23 68.92 68.23 69.6 C68.89 69.6 69.55 69.6 70.23 69.6 C70.23 70.26 70.23 70.92 70.23 71.6 C70.89 71.6 71.55 71.6 72.23 71.6 C72.23 72.26 72.23 72.92 72.23 73.6 C72.89 73.6 73.55 73.6 74.23 73.6 C74.23 74.26 74.23 74.92 74.23 75.6 C74.82 75.86 75.4 76.13 76.01 76.4 C78.31 77.64 79.83 78.95 81.68 80.79 C82.3 81.4 82.92 82.02 83.55 82.65 C84.19 83.29 84.82 83.94 85.48 84.6 C86.45 85.56 86.45 85.56 87.45 86.54 C88.37 87.47 88.37 87.47 89.3 88.41 C89.87 88.97 90.43 89.54 91 90.12 C92.23 91.6 92.23 91.6 92.23 93.6 C92.81 93.85 93.39 94.11 93.99 94.37 C96.46 95.73 98.08 97.24 100.05 99.26 C100.75 99.97 101.45 100.68 102.17 101.41 C102.89 102.15 103.61 102.9 104.35 103.66 C105.79 105.13 107.23 106.6 108.67 108.07 C109.31 108.72 109.94 109.38 110.59 110.05 C112.16 111.69 112.16 111.69 114.23 112.6 C114.23 113.26 114.23 113.92 114.23 114.6 C115.22 114.93 116.21 115.26 117.23 115.6 C118.92 117.58 120.58 119.58 122.23 121.6 C122.89 121.93 123.55 122.26 124.23 122.6 C124.23 123.26 124.23 123.92 124.23 124.6 C124.89 124.6 125.55 124.6 126.23 124.6 C127.71 126.14 127.71 126.14 129.41 128.22 C132.34 131.69 135.38 134.57 138.94 137.37 C139.37 137.78 139.79 138.18 140.23 138.6 C140.23 139.26 140.23 139.92 140.23 140.6 C140.89 140.6 141.55 140.6 142.23 140.6 C142.23 141.26 142.23 141.92 142.23 142.6 C142.89 142.6 143.55 142.6 144.23 142.6 C144.23 143.26 144.23 143.92 144.23 144.6 C144.81 144.84 145.39 145.09 145.99 145.34 C148.61 146.81 150.03 148.43 151.98 150.72 C156.28 155.63 160.8 160.29 165.41 164.91 C166.09 165.59 166.77 166.27 167.47 166.98 C171.24 170.74 175.09 174.24 179.23 177.6 C182.1 180.29 182.1 180.29 184.23 182.6 C184.23 183.26 184.23 183.92 184.23 184.6 C184.89 184.6 185.55 184.6 186.23 184.6 C186.23 185.26 186.23 185.92 186.23 186.6 C186.89 186.6 187.55 186.6 188.23 186.6 C188.23 187.26 188.23 187.92 188.23 188.6 C188.89 188.6 189.55 188.6 190.23 188.6 C191.59 190.24 192.92 191.91 194.23 193.6 C197.56 197.11 201.11 200.22 204.87 203.27 C205.32 203.71 205.77 204.14 206.23 204.6 C206.23 205.26 206.23 205.92 206.23 206.6 C206.89 206.6 207.55 206.6 208.23 206.6 C210.35 208.47 210.35 208.47 212.23 210.6 C212.23 211.26 212.23 211.92 212.23 212.6 C212.89 212.6 213.55 212.6 214.23 212.6 C214.23 213.26 214.23 213.92 214.23 214.6 C214.89 214.6 215.55 214.6 216.23 214.6 C216.23 215.26 216.23 215.92 216.23 216.6 C216.89 216.6 217.55 216.6 218.23 216.6 C218.23 217.26 218.23 217.92 218.23 218.6 C218.89 218.6 219.55 218.6 220.23 218.6 C220.23 219.26 220.23 219.92 220.23 220.6 C220.81 220.85 221.38 221.1 221.98 221.35 C229.78 225.68 234.56 234.38 237.23 242.6 C240.16 254.16 239.39 264.41 233.54 274.91 C227.34 284.31 219.3 290.66 208.91 294.97 C196.26 297.12 184.55 295.38 173.66 288.49 C169.97 285.62 167.03 282.24 164.04 278.67 C162.39 276.52 162.39 276.52 160.23 275.6 C160.23 274.94 160.23 274.28 160.23 273.6 C159.24 273.27 158.25 272.94 157.23 272.6 C157.23 271.94 157.23 271.28 157.23 270.6 C156.63 270.33 156.04 270.06 155.43 269.79 C153.19 268.58 151.73 267.35 149.95 265.56 C149.33 264.95 148.71 264.33 148.07 263.7 C147.42 263.03 146.76 262.37 146.08 261.68 C145.39 261 144.71 260.31 144 259.6 C142.54 258.14 141.09 256.68 139.64 255.21 C137.44 253 135.23 250.79 133.02 248.58 C131.6 247.16 130.19 245.73 128.77 244.31 C128.12 243.66 127.47 243 126.8 242.33 C122.92 238.41 119.24 234.39 115.69 230.17 C114.29 228.48 114.29 228.48 112.23 227.6 C112.23 226.94 112.23 226.28 112.23 225.6 C111.65 225.35 111.08 225.1 110.49 224.85 C107.88 223.4 106.08 221.72 103.98 219.6 C102.92 218.55 102.92 218.55 101.84 217.47 C100.23 215.6 100.23 215.6 100.23 213.6 C99.64 213.33 99.06 213.06 98.46 212.79 C96.2 211.58 94.42 210.26 92.48 208.6 C91.86 208.08 91.25 207.57 90.62 207.04 C89.23 205.6 89.23 205.6 89.23 203.6 C88.57 203.6 87.91 203.6 87.23 203.6 C85.78 202.09 85.78 202.09 84.1 200.04 C80.93 196.28 77.53 193.14 73.73 190.04 C73.23 189.57 72.74 189.09 72.23 188.6 C72.23 187.94 72.23 187.28 72.23 186.6 C71.57 186.6 70.91 186.6 70.23 186.6 C68.89 185.21 68.89 185.21 67.41 183.35 C64.92 180.33 62.34 177.99 59.23 175.6 C56.62 173.12 54.28 170.66 52.04 167.85 C50.42 165.52 50.42 165.52 48.23 164.6 C48.23 163.94 48.23 163.28 48.23 162.6 C47.57 162.6 46.91 162.6 46.23 162.6 C42 158.75 38.3 154.37 34.51 150.1 C32.15 147.52 29.71 145.06 27.23 142.6 C25.85 141.21 24.47 139.82 23.09 138.43 C21.57 136.9 20.06 135.37 18.54 133.85 C17.38 132.68 17.38 132.68 16.2 131.48 C15.09 130.37 15.09 130.37 13.96 129.24 C12.96 128.23 12.96 128.23 11.93 127.19 C10.3 125.52 10.3 125.52 8.23 124.6 C8.23 123.94 8.23 123.28 8.23 122.6 C7.57 122.6 6.91 122.6 6.23 122.6 C6.23 121.94 6.23 121.28 6.23 120.6 C5.57 120.6 4.91 120.6 4.23 120.6 C3.08 119.52 1.94 118.42 0.84 117.28 C-1.14 115.22 -3.18 113.23 -5.21 111.22 C-8.4 108.04 -11.43 104.79 -14.29 101.3 C-15.85 99.51 -17.5 97.84 -19.19 96.17 C-21.17 94.21 -23.13 92.22 -25.09 90.24 C-26.7 88.63 -28.3 87.02 -29.9 85.41 C-31.11 84.18 -31.11 84.18 -32.36 82.93 C-33.14 82.14 -33.92 81.36 -34.72 80.55 C-35.43 79.84 -36.13 79.13 -36.86 78.4 C-38.85 76.43 -38.85 76.43 -41.77 74.6 C-41.77 73.94 -41.77 73.28 -41.77 72.6 C-42.43 72.6 -43.09 72.6 -43.77 72.6 C-45.12 70.94 -46.45 69.28 -47.77 67.6 C-49.26 66.61 -49.26 66.61 -50.77 65.6 C-50.77 64.94 -50.77 64.28 -50.77 63.6 C-51.33 63.39 -51.89 63.19 -52.46 62.97 C-59.13 59.01 -62.21 51.62 -64.77 44.6 C-67.34 32.64 -66.8 20.65 -60.24 10.14 C-58.83 8.17 -57.49 6.31 -55.77 4.6 C-55.11 4.6 -54.45 4.6 -53.77 4.6 C-53.77 3.94 -53.77 3.28 -53.77 2.6 C-53.11 2.6 -52.45 2.6 -51.77 2.6 C-51.77 1.94 -51.77 1.28 -51.77 0.6 C-36.95 -11.95 -15.47 -9.45 0 0 Z " fill="#171717" transform="translate(1169.7734375,1127.40234375)"/>
<path d="M0 0 C19.42 14.99 32.08 35.24 35.94 59.69 C38.24 78.57 35.32 95.06 27.25 112.25 C26.83 113.16 26.41 114.08 25.98 115.02 C22.03 122.97 16.46 129.03 10.25 135.25 C9.53 135.98 8.81 136.71 8.07 137.47 C-1.32 146.41 -13.54 153.08 -25.75 157.25 C-26.67 157.57 -27.59 157.89 -28.54 158.21 C-50.29 164.44 -74.64 160.25 -94.36 149.88 C-100.57 146.33 -106.54 142.17 -111.75 137.25 C-111.75 136.59 -111.75 135.93 -111.75 135.25 C-112.74 134.92 -113.73 134.59 -114.75 134.25 C-132.42 115.26 -140.78 91.25 -139.89 65.49 C-138.44 41.78 -126.51 21.36 -109.62 5.12 C-78.76 -21.92 -33.35 -22.96 0 0 Z " fill="#D4AF37" transform="translate(819.75,1222.75)"/>
<path d="M0 0 C15.46 13.52 25.28 33.75 28.25 53.94 C29.13 67.96 29.23 81.66 24.25 94.94 C23.89 95.98 23.53 97.01 23.15 98.08 C18.63 110.01 11.13 119.9 2.25 128.94 C1.58 129.62 0.9 130.31 0.21 131.02 C-16.18 146.61 -38.47 154.52 -60.91 154.29 C-87.77 153.47 -107.35 142.31 -126.07 123.62 C-141.72 106.96 -148.16 86.01 -147.89 63.6 C-147.03 41.67 -138.91 19.39 -122.75 3.94 C-122.09 3.94 -121.43 3.94 -120.75 3.94 C-120.75 3.28 -120.75 2.62 -120.75 1.94 C-120.09 1.94 -119.43 1.94 -118.75 1.94 C-118.75 1.28 -118.75 0.62 -118.75 -0.06 C-115.28 -2.99 -111.49 -5.5 -107.75 -8.06 C-106.98 -8.61 -106.22 -9.15 -105.43 -9.71 C-72.76 -31.26 -28.8 -24.18 0 0 Z " fill="#D4AF37" transform="translate(827.75,719.0625)"/>
<path d="M0 0 C0.66 0 1.32 0 2 0 C0.51 5 -1.61 9.37 -4.06 13.94 C-4.47 14.69 -4.87 15.45 -5.28 16.22 C-8.07 21.39 -11 26.46 -14.05 31.48 C-17.95 37.88 -21.75 44.34 -25.55 50.81 C-26.3 52.08 -27.05 53.36 -27.8 54.63 C-31.88 61.57 -35.89 68.52 -39.66 75.62 C-42.11 79.98 -45.06 83.97 -48 88 C-49.5 90.08 -51 92.16 -52.5 94.25 C-53.12 95.11 -53.12 95.11 -53.75 95.98 C-58.44 102.55 -62.93 109.26 -67.45 115.94 C-71.04 121.22 -74.72 126.37 -78.69 131.38 C-81.29 134.66 -83.51 137.69 -85.25 141.5 C-86.95 144.89 -88.35 146.26 -91.32 148.49 C-93.47 150.42 -94.96 152.57 -96.62 154.94 C-99.86 159.54 -103.31 163.82 -107 168.06 C-111.22 172.92 -115.33 177.83 -119.31 182.88 C-120.82 184.77 -122.36 186.61 -123.94 188.44 C-126.16 190.89 -126.16 190.89 -127 194 C-127.66 194 -128.32 194 -129 194 C-129.4 194.93 -129.4 194.93 -129.81 195.88 C-131 198 -131 198 -134 200 C-134 197 -134 197 -132.12 194.81 C-130 193 -130 193 -128 193 C-127.94 192.46 -127.87 191.92 -127.8 191.37 C-126.66 188.01 -124.44 185.73 -122.12 183.12 C-118.08 178.47 -114.16 173.75 -110.38 168.88 C-106.31 163.65 -102.16 158.52 -97.94 153.42 C-96.22 151.27 -94.66 149.09 -93.12 146.81 C-92.07 145.42 -92.07 145.42 -91 144 C-90.01 144 -89.02 144 -88 144 C-87.93 143.31 -87.86 142.62 -87.78 141.91 C-86.78 138.17 -84.79 135.49 -82.5 132.44 C-82.05 131.82 -81.59 131.2 -81.13 130.56 C-78.4 126.84 -75.61 123.17 -72.81 119.5 C-67.75 112.82 -63.09 105.87 -58.4 98.92 C-55.14 94.08 -51.82 89.33 -48.24 84.71 C-46.49 82.3 -45.22 79.71 -44 77 C-43.34 77 -42.68 77 -42 77 C-41.74 76.14 -41.49 75.28 -41.22 74.4 C-39.94 70.84 -38.34 67.88 -36.4 64.63 C-36.05 64.04 -35.7 63.45 -35.34 62.84 C-34.59 61.58 -33.85 60.32 -33.1 59.07 C-31.15 55.81 -29.23 52.55 -27.3 49.28 C-26.73 48.33 -26.73 48.33 -26.15 47.35 C-22.6 41.34 -19.16 35.27 -15.76 29.16 C-13.87 25.76 -11.94 22.38 -10 19 C-9.34 19 -8.68 19 -8 19 C-7.63 17.79 -7.63 17.79 -7.25 16.56 C-5.25 10.86 -2.73 5.39 0 0 Z " fill="#E7DCAD" transform="translate(1932,1498)"/>
<path d="M0 0 C1.22 3.65 0.69 4.37 -0.81 7.8 C-1.22 8.77 -1.63 9.73 -2.06 10.73 C-2.51 11.77 -2.97 12.81 -3.44 13.88 C-6.82 21.75 -10.04 29.64 -13 37.69 C-15.8 45.2 -18.94 52.5 -22.38 59.75 C-23.02 61.12 -23.02 61.12 -23.68 62.51 C-24.28 63.77 -24.28 63.77 -24.9 65.05 C-25.26 65.79 -25.61 66.53 -25.98 67.29 C-27 69 -27 69 -29 70 C-27.93 66.31 -26.53 63.01 -24.75 59.62 C-22.36 54.94 -20.52 50.17 -18.73 45.24 C-15.98 37.76 -12.92 30.42 -9.88 23.06 C-9.62 22.43 -9.36 21.81 -9.09 21.16 C-6.15 14.06 -3.16 7 0 0 Z " fill="#E2DAAF" transform="translate(1979,1395)"/>
<path d="M0 0 C0.66 0.33 1.32 0.66 2 1 C-5.52 9.93 -5.52 9.93 -10 13 C-10.66 13 -11.32 13 -12 13 C-12 13.66 -12 14.32 -12 15 C-13.51 16.21 -15.09 17.34 -16.69 18.44 C-21.91 22.13 -26.77 26.1 -31.58 30.32 C-34.25 32.63 -36.72 34.63 -40 36 C-40 35.34 -40 34.68 -40 34 C-38.09 32.22 -38.09 32.22 -35.38 30.06 C-34.38 29.27 -33.39 28.48 -32.37 27.66 C-31.83 27.24 -31.29 26.81 -30.73 26.37 C-28.89 24.91 -27.06 23.44 -25.22 21.96 C-23.96 20.95 -22.7 19.94 -21.44 18.94 C-20.83 18.45 -20.22 17.96 -19.6 17.46 C-15.23 14 -15.23 14 -13 14 C-13 13.34 -13 12.68 -13 12 C-11.43 10.7 -11.43 10.7 -9.31 9.25 C-5.52 6.52 -2.83 3.71 0 0 Z " fill="#E5DCB1" transform="translate(1706,1788)"/>
<path d="M0 0 C1.83 -0.05 3.67 -0.09 5.5 -0.12 C6.52 -0.15 7.54 -0.17 8.59 -0.2 C11.78 -0.01 14.47 0.67 17.53 1.49 C23.14 2.65 28.92 2.73 34.62 3.06 C37.2 3.22 39.78 3.37 42.35 3.54 C43.48 3.6 44.62 3.67 45.78 3.73 C48.9 3.99 51.92 4.44 55 5 C50.94 7.7 47.81 6.85 43.19 6.31 C41.31 6.11 39.43 5.91 37.56 5.71 C36.53 5.59 35.49 5.48 34.43 5.36 C30.61 4.96 26.79 4.61 22.97 4.26 C20.91 4.07 18.85 3.88 16.8 3.69 C15.43 3.56 14.07 3.44 12.7 3.32 C10.77 3.15 8.85 2.97 6.92 2.78 C5.8 2.68 4.69 2.58 3.53 2.47 C2.7 2.32 1.86 2.16 1 2 C0.67 1.34 0.34 0.68 0 0 Z " fill="#DDBE55" transform="translate(1102,2)"/>
<path d="M0 0 C0.99 0.33 1.98 0.66 3 1 C-0.74 3.25 -4.49 5.49 -8.23 7.74 C-8.88 8.13 -9.53 8.52 -10.19 8.92 C-11.72 9.83 -13.26 10.72 -14.8 11.61 C-16.98 12.86 -16.98 12.86 -18.37 14.42 C-21.57 17.52 -25.66 19.48 -29.5 21.69 C-30.37 22.2 -31.24 22.71 -32.13 23.24 C-32.96 23.72 -33.8 24.2 -34.66 24.7 C-35.42 25.14 -36.18 25.58 -36.96 26.04 C-39 27 -39 27 -42 27 C-24.27 14 -24.27 14 -19 14 C-18.67 13.01 -18.34 12.02 -18 11 C-15.57 9.37 -13.16 7.88 -10.62 6.44 C-9.26 5.64 -7.9 4.85 -6.54 4.06 C-5.93 3.71 -5.33 3.36 -4.7 3.01 C-3.1 2.06 -1.55 1.03 0 0 Z " fill="#DED7AC" transform="translate(1586,1881)"/>
<path d="M0 0 C4.95 4.15 9.59 8.47 14.12 13.06 C14.72 13.66 15.31 14.26 15.93 14.88 C17.09 16.05 18.24 17.22 19.4 18.39 C21.59 20.6 23.8 22.8 26 25 C28.33 27.33 30.67 29.67 33 32 C32.5 32.99 32.5 32.99 32 34 C30.33 32.38 28.66 30.75 27 29.12 C26.07 28.22 25.14 27.32 24.19 26.38 C22 24 22 24 22 22 C21.43 21.75 20.86 21.51 20.27 21.25 C17.62 19.79 15.81 18.07 13.67 15.94 C12.87 15.14 12.07 14.34 11.25 13.52 C10.43 12.69 9.6 11.86 8.75 11 C7.91 10.17 7.07 9.33 6.2 8.48 C5.41 7.68 4.62 6.88 3.8 6.06 C2.7 4.97 2.7 4.97 1.59 3.85 C0 2 0 2 0 0 Z " fill="#CDC9B0" transform="translate(270,1720)"/>
<path d="M0 0 C0.66 0.33 1.32 0.66 2 1 C-3.28 5.84 -8.8 10.11 -14.68 14.2 C-17.2 15.96 -17.2 15.96 -19 19 C-19.66 19 -20.32 19 -21 19 C-21 19.66 -21 20.32 -21 21 C-22.68 22.32 -22.68 22.32 -24.88 23.69 C-25.59 24.15 -26.31 24.6 -27.05 25.07 C-28.02 25.53 -28.02 25.53 -29 26 C-29.66 25.67 -30.32 25.34 -31 25 C-28.64 22.47 -27.34 21.11 -24 20 C-23.48 19.48 -22.97 18.97 -22.44 18.44 C-21.96 17.96 -21.49 17.49 -21 17 C-20.34 17 -19.68 17 -19 17 C-18.67 16.01 -18.34 15.02 -18 14 C-15.95 12.26 -13.91 10.65 -11.75 9.06 C-10.6 8.2 -9.45 7.34 -8.3 6.47 C-7.74 6.06 -7.19 5.65 -6.62 5.22 C-4.37 3.53 -2.18 1.77 0 0 Z " fill="#F3E9BC" transform="translate(1660,1827)"/>
<path d="M0 0 C0.66 0 1.32 0 2 0 C0.36 3.99 -2.4 6.89 -5.31 10 C-5.84 10.56 -6.36 11.13 -6.9 11.71 C-10.8 15.84 -14.84 19.81 -19 23.69 C-19.54 24.19 -20.08 24.7 -20.63 25.22 C-23.29 27.65 -25.75 29.48 -29 31 C-24.71 25.81 -20.17 21.21 -15.19 16.69 C-13.85 15.46 -12.51 14.24 -11.17 13.01 C-10.58 12.48 -10 11.95 -9.4 11.4 C-7.88 10.03 -7.88 10.03 -7 8 C-6.34 8 -5.68 8 -5 8 C-4.34 6.35 -3.68 4.7 -3 3 C-2.34 3 -1.68 3 -1 3 C-0.67 2.01 -0.34 1.02 0 0 Z " fill="#DFD8B6" transform="translate(1760,1736)"/>
<path d="M0 0 C1.35 0.29 2.71 0.58 4.06 0.88 C5.19 1.12 5.19 1.12 6.35 1.37 C11.89 2.69 17.25 4.39 22.59 6.38 C23.79 6.83 24.98 7.27 26.21 7.73 C28.06 8.42 28.06 8.42 29.94 9.12 C31.21 9.6 32.48 10.07 33.74 10.54 C36.83 11.69 39.92 12.85 43 14 C39.68 15.11 39.13 14.95 35.99 13.83 C35.19 13.55 34.39 13.27 33.56 12.98 C32.7 12.67 31.84 12.36 30.96 12.04 C30.07 11.72 29.19 11.41 28.28 11.09 C25.45 10.09 22.63 9.08 19.81 8.06 C17.9 7.38 15.99 6.7 14.07 6.03 C9.38 4.36 4.69 2.68 0 1 C0 0.67 0 0.34 0 0 Z " fill="#EBDFAF" transform="translate(656,1981)"/>
<path d="M0 0 C7.63 0.52 14.34 2.99 21.5 5.56 C22.7 5.99 23.91 6.41 25.15 6.85 C28.1 7.89 31.05 8.94 34 10 C34 10.66 34 11.32 34 12 C35.13 12.12 36.27 12.25 37.44 12.38 C38.61 12.58 39.79 12.79 41 13 C41.49 13.99 41.49 13.99 42 15 C36.06 13.52 36.06 13.52 30 12 C30 11.34 30 10.68 30 10 C28.74 9.74 27.49 9.49 26.19 9.23 C20.64 7.99 15.31 6.22 9.94 4.38 C8.98 4.05 8.02 3.73 7.03 3.39 C4.68 2.6 2.34 1.8 0 1 C0 0.67 0 0.34 0 0 Z " fill="#DCD2B1" transform="translate(1344,50)"/>
<path d="M0 0 C2.93 2.93 2.98 6.43 3.62 10.38 C3.76 11.14 3.89 11.91 4.03 12.7 C4.63 16.24 5 19.39 5 23 C5.66 23 6.32 23 7 23 C8.33 26.98 8.07 30.85 8 35 C5.45 32.45 5.27 30.62 4.49 27.11 C4.23 25.92 3.96 24.74 3.69 23.52 C3.42 22.28 3.15 21.03 2.88 19.75 C2.6 18.52 2.32 17.29 2.04 16.03 C0.83 10.57 -0.17 5.61 0 0 Z " fill="#D8CB98" transform="translate(18,1223)"/>
<path d="M0 0 C0 0.66 0 1.32 0 2 C-0.99 2.33 -1.98 2.66 -3 3 C-4.87 5.01 -6.56 7.14 -8.28 9.29 C-10 11 -10 11 -13 11 C-13.23 11.58 -13.45 12.15 -13.69 12.75 C-15.33 15.57 -17.4 17.08 -20 19 C-20.66 18.67 -21.32 18.34 -22 18 C-21.36 17.75 -20.72 17.5 -20.06 17.25 C-17.81 16.18 -17.81 16.18 -17.25 13.88 C-17.17 13.26 -17.08 12.64 -17 12 C-16.01 12 -15.02 12 -14 12 C-13.34 10.68 -12.68 9.36 -12 8 C-11.34 8 -10.68 8 -10 8 C-9.79 7.42 -9.59 6.85 -9.38 6.25 C-7.36 2.94 -4.03 0 0 0 Z " fill="#DCC781" transform="translate(348,254)"/>
<path d="M0 0 C1.27 0.93 2.54 1.87 3.81 2.81 C4.52 3.33 5.23 3.86 5.96 4.39 C7.79 5.83 9.36 7.36 11 9 C11.72 9.41 12.44 9.82 13.19 10.25 C19.44 14.14 24.49 19.22 29 25 C24.47 23.62 22.85 21.69 20 18 C17.06 15.19 14.07 12.63 10.56 10.56 C6.68 8.19 3.17 5.26 0 2 C0 1.34 0 0.68 0 0 Z " fill="#D5CEB0" transform="translate(1679,235)"/>
<path d="M0 0 C10.25 8.57 10.25 8.57 14 13 C14 13.66 14 14.32 14 15 C14.66 15 15.32 15 16 15 C17.51 16.97 17.51 16.97 19.12 19.5 C19.66 20.34 20.2 21.17 20.76 22.03 C21.17 22.68 21.58 23.33 22 24 C21.01 24 20.02 24 19 24 C15 18.74 15 18.74 15 16 C14.34 16 13.68 16 13 16 C11.67 14.64 11.67 14.64 10.19 12.81 C8.28 10.5 6.41 8.42 4.25 6.31 C2.19 4.2 1.22 2.63 0 0 Z " fill="#D5CA9F" transform="translate(1784,336)"/>
<path d="M0 0 C0.33 0 0.66 0 1 0 C1.06 0.63 1.12 1.25 1.18 1.9 C1.27 2.72 1.35 3.53 1.44 4.38 C1.52 5.19 1.6 6 1.68 6.84 C1.89 9.04 1.89 9.04 3 11 C3.15 12.96 3.25 14.92 3.32 16.88 C3.36 18.05 3.4 19.22 3.44 20.42 C3.48 21.64 3.52 22.86 3.56 24.12 C3.61 25.36 3.65 26.59 3.69 27.86 C3.8 30.9 3.9 33.95 4 37 C3.67 37 3.34 37 3 37 C2.49 33.08 1.99 29.17 1.5 25.25 C1.36 24.16 1.21 23.07 1.07 21.94 C0.15 14.59 -0.18 7.41 0 0 Z " fill="#E0D8A7" transform="translate(2,1108)"/>
<path d="M0 0 C2.48 0.49 2.48 0.49 5 1 C5 1.66 5 2.32 5 3 C6.02 3.38 6.02 3.38 7.07 3.76 C10.51 5.22 13.71 7 16.94 8.88 C17.53 9.21 18.13 9.55 18.74 9.9 C22.6 12.12 26.32 14.49 30 17 C29.34 17.33 28.68 17.66 28 18 C26.28 17.31 26.28 17.31 24.22 16.16 C23.46 15.74 22.71 15.32 21.93 14.89 C21.13 14.43 20.33 13.97 19.5 13.5 C18.69 13.04 17.88 12.59 17.04 12.12 C11.15 8.76 5.25 5.32 0 1 C0 0.67 0 0.34 0 0 Z " fill="#D6D1B2" transform="translate(477,1892)"/>
<path d="M0 0 C1.58 0.11 3.17 0.24 4.75 0.38 C6.07 0.48 6.07 0.48 7.42 0.59 C10.04 1.01 11.66 1.81 14 3 C15.9 3.43 17.82 3.8 19.75 4.12 C20.73 4.29 21.72 4.46 22.73 4.63 C23.86 4.81 23.86 4.81 25 5 C25 5.33 25 5.66 25 6 C19.23 6.25 14.17 5.34 8.56 4 C7.74 3.81 6.91 3.62 6.06 3.42 C4.04 2.95 2.02 2.48 0 2 C0 1.34 0 0.68 0 0 Z " fill="#EFDB8E" transform="translate(1242,22)"/>
<path d="M0 0 C2.48 0.49 2.48 0.49 5 1 C5 1.66 5 2.32 5 3 C5.52 3.23 6.03 3.45 6.56 3.69 C8.67 4.82 10.45 6.02 12.38 7.44 C14.7 9.14 16.77 10.38 19.38 11.69 C22 13 22 13 23 15 C14.44 11.89 7.1 6.61 0 1 C0 0.67 0 0.34 0 0 Z " fill="#D6D0AE" transform="translate(443,1870)"/>
<path d="M0 0 C2.09 0.42 2.09 0.42 4 1 C2.25 2.46 0.5 3.92 -1.25 5.38 C-2.22 6.19 -3.2 7 -4.2 7.84 C-6.46 9.58 -8.41 10.88 -11 12 C-10.67 10.68 -10.34 9.36 -10 8 C-9.01 8 -8.02 8 -7 8 C-7 7.01 -7 6.02 -7 5 C-6.4 4.73 -5.8 4.46 -5.19 4.19 C-2.94 3.13 -2.94 3.13 -1.5 1.31 C-1 0.88 -0.51 0.45 0 0 Z " fill="#D3BB63" transform="translate(369,234)"/>
<path d="M0 0 C1.98 0.99 1.98 0.99 4 2 C4 2.66 4 3.32 4 4 C4.99 4.33 5.98 4.66 7 5 C8.03 6.65 9.02 8.32 10 10 C10.72 10.72 11.44 11.44 12.19 12.19 C12.79 12.79 13.38 13.38 14 14 C14 14.66 14 15.32 14 16 C14.66 16 15.32 16 16 16 C16 16.66 16 17.32 16 18 C16.66 18 17.32 18 18 18 C17.67 18.66 17.34 19.32 17 20 C16.34 19.67 15.68 19.34 15 19 C15 18.34 15 17.68 15 17 C14.34 17 13.68 17 13 17 C8.17 11.76 3.76 6.05 0 0 Z " fill="#DBD6B9" transform="translate(252,1700)"/>
<path d="M0 0 C0.33 0 0.66 0 1 0 C1.23 4.75 0.43 8.48 -1 13 C-1.38 14.31 -1.75 15.62 -2.12 16.94 C-2.41 17.95 -2.7 18.96 -3 20 C-3.66 20 -4.32 20 -5 20 C-5.33 21.32 -5.66 22.64 -6 24 C-5.67 21.36 -5.34 18.72 -5 16 C-4.34 16 -3.68 16 -3 16 C-2.95 15.26 -2.9 14.53 -2.85 13.77 C-2.78 12.79 -2.7 11.82 -2.62 10.81 C-2.56 9.85 -2.49 8.89 -2.41 7.89 C-2 4.98 -1.2 2.67 0 0 Z " fill="#E6D17C" transform="translate(36,751)"/>
<path d="M0 0 C0.61 1.83 0.61 1.83 1 4 C0.07 5.43 -0.87 6.85 -1.89 8.21 C-3.61 10.99 -4.35 14.01 -5.19 17.14 C-5.46 17.76 -5.73 18.37 -6 19 C-6.99 19.33 -7.98 19.66 -9 20 C-8.62 17.56 -8.62 17.56 -8 15 C-7.34 14.67 -6.68 14.34 -6 14 C-5.32 12 -4.66 10 -4 8 C-2.74 5.3 -1.38 2.64 0 0 Z " fill="#ECD881" transform="translate(99,583)"/>
<path d="M0 0 C0.66 0.33 1.32 0.66 2 1 C-0.66 6.83 -3.62 11.33 -8 16 C-8.33 15.34 -8.66 14.68 -9 14 C-8 11.84 -8 11.84 -6.56 9.38 C-6.09 8.56 -5.62 7.74 -5.13 6.9 C-4.76 6.27 -4.38 5.65 -4 5 C-3.34 5 -2.68 5 -2 5 C-1.34 3.35 -0.68 1.7 0 0 Z " fill="#DAC573" transform="translate(196,418)"/>
<path d="M0 0 C0.66 0 1.32 0 2 0 C2 0.66 2 1.32 2 2 C2.99 2 3.98 2 5 2 C7.19 3.88 7.19 3.88 9 6 C9 6.66 9 7.32 9 8 C9.66 8 10.32 8 11 8 C11.66 9.32 12.32 10.64 13 12 C11.68 11.67 10.36 11.34 9 11 C9 10.34 9 9.68 9 9 C8.36 8.75 7.72 8.5 7.06 8.25 C5 7 5 7 4.25 4.88 C4.13 3.95 4.13 3.95 4 3 C2.68 3 1.36 3 0 3 C0 2.01 0 1.02 0 0 Z " fill="#EDDEA2" transform="translate(1727,278)"/>
<path d="M0 0 C0.66 0.33 1.32 0.66 2 1 C0.62 3 0.62 3 -1 5 C-1.66 5 -2.32 5 -3 5 C-3 5.66 -3 6.32 -3 7 C-4.68 8.32 -4.68 8.32 -6.88 9.69 C-7.95 10.37 -7.95 10.37 -9.05 11.07 C-10.02 11.53 -10.02 11.53 -11 12 C-11.66 11.67 -12.32 11.34 -13 11 C-10.64 8.47 -9.34 7.11 -6 6 C-5.48 5.48 -4.97 4.97 -4.44 4.44 C-3.96 3.96 -3.49 3.49 -3 3 C-2.34 3 -1.68 3 -1 3 C-0.67 2.01 -0.34 1.02 0 0 Z " fill="#D1C69B" transform="translate(1642,1841)"/>
<path d="M0 0 C-6.38 3.05 -13.96 6.27 -21 4 C-19.94 3.72 -18.88 3.45 -17.79 3.16 C-16.4 2.79 -15.01 2.43 -13.62 2.06 C-12.93 1.88 -12.23 1.7 -11.51 1.51 C-2.72 -0.81 -2.72 -0.81 0 0 Z " fill="#EBD375" transform="translate(759,35)"/>
<path d="M0 0 C4.53 1.4 6.75 3.56 9.81 7.12 C11 8.49 11 8.49 12.21 9.88 C12.8 10.58 13.39 11.28 14 12 C13.67 12.66 13.34 13.32 13 14 C11.33 12.38 9.66 10.75 8 9.12 C7.07 8.22 6.14 7.32 5.19 6.38 C3 4 3 4 3 2 C2.01 1.67 1.02 1.34 0 1 C0 0.67 0 0.34 0 0 Z " fill="#F2E6B0" transform="translate(289,1740)"/>
<path d="M0 0 C0.33 0.66 0.66 1.32 1 2 C0.06 4.12 0.06 4.12 -1 6 C-1.99 6 -2.98 6 -4 6 C-4.12 6.6 -4.25 7.2 -4.38 7.81 C-5 10 -5 10 -7 13 C-7.66 13 -8.32 13 -9 13 C-9.33 13.66 -9.66 14.32 -10 15 C-10 12 -10 12 -8.62 10.56 C-8.09 10.05 -7.55 9.53 -7 9 C-6.71 8.38 -6.42 7.76 -6.12 7.12 C-4.58 4.21 -2.38 2.25 0 0 Z " fill="#DCC567" transform="translate(240,362)"/>
<path d="M0 0 C0.66 0.33 1.32 0.66 2 1 C1.67 1.66 1.34 2.32 1 3 C0.34 3 -0.32 3 -1 3 C-1.33 3.99 -1.66 4.98 -2 6 C-4.07 7.82 -4.07 7.82 -6.56 9.69 C-7.39 10.31 -8.22 10.93 -9.07 11.57 C-9.7 12.04 -10.34 12.52 -11 13 C-11.33 12.34 -11.66 11.68 -12 11 C-10.75 9.87 -9.5 8.75 -8.25 7.62 C-7.55 7 -6.86 6.37 -6.14 5.73 C-4.15 4.12 -2.32 3.03 0 2 C0 1.34 0 0.68 0 0 Z " fill="#F0E5B0" transform="translate(1720,1775)"/>
<path d="M0 0 C2.51 2.51 2.97 4.19 3.1 7.7 C3.09 8.69 3.07 9.67 3.06 10.69 C3.05 11.68 3.04 12.68 3.04 13.7 C3.02 14.46 3.01 15.22 3 16 C0.21 10.61 -0.12 6.07 0 0 Z " fill="#EFE2A6" transform="translate(10,1178)"/>
<path d="M0 0 C1.32 0.33 2.64 0.66 4 1 C4 1.66 4 2.32 4 3 C4.54 3.27 5.07 3.54 5.62 3.81 C8.42 5.21 11.21 6.6 14 8 C14 8.99 14 9.98 14 11 C12.95 10.35 12.95 10.35 11.88 9.69 C8.97 7.98 6.02 6.48 3 5 C3 4.01 3 3.02 3 2 C2.01 2 1.02 2 0 2 C0 1.34 0 0.68 0 0 Z " fill="#F2E6AE" transform="translate(1599,175)"/>
<path d="M0 0 C-5.78 3.26 -10.38 4.69 -17 5 C-14.6 2.6 -13.67 2.66 -10.38 2.38 C-9.56 2.3 -8.74 2.23 -7.9 2.15 C-7.27 2.1 -6.65 2.05 -6 2 C-6 1.34 -6 0.68 -6 0 C-3.51 -1.25 -2.59 -0.78 0 0 Z " fill="#E7D076" transform="translate(704,51)"/>
<path d="M0 0 C0.66 0.33 1.32 0.66 2 1 C0.68 4.63 -0.64 8.26 -2 12 C-2.66 12 -3.32 12 -4 12 C-4.33 12.66 -4.66 13.32 -5 14 C-4.62 11.06 -4.62 11.06 -4 8 C-3.34 7.67 -2.68 7.34 -2 7 C-1.27 4.69 -0.6 2.35 0 0 Z " fill="#E1D088" transform="translate(87,607)"/>
<path d="M0 0 C3.81 3.21 7.55 6.41 11 10 C10.67 10.66 10.34 11.32 10 12 C6.15 8.94 2.85 6.06 0 2 C0 1.34 0 0.68 0 0 Z " fill="#EADEB2" transform="translate(1784,336)"/>
<path d="M0 0 C1.27 0.93 2.54 1.87 3.81 2.81 C4.52 3.33 5.23 3.86 5.96 4.39 C7.79 5.83 9.4 7.32 11 9 C10.67 9.66 10.34 10.32 10 11 C8.33 9.55 6.66 8.09 5 6.62 C4.07 5.81 3.14 5 2.19 4.16 C1.47 3.45 0.74 2.74 0 2 C0 1.34 0 0.68 0 0 Z " fill="#EEE0A9" transform="translate(1679,235)"/>
<path d="M0 0 C4.11 1.45 7.43 3.51 11 6 C9.19 6.69 9.19 6.69 7 7 C5.5 5.69 5.5 5.69 4 4 C1.9 2.82 1.9 2.82 0 2 C0 1.34 0 0.68 0 0 Z " fill="#DED19E" transform="translate(1581,163)"/>
<path d="M0 0 C0.33 0 0.66 0 1 0 C1.35 4.86 0.52 7.83 -2 12 C-2.99 12.5 -2.99 12.5 -4 13 C-3.25 7.25 -3.25 7.25 -1 5 C-0.35 2.43 -0.35 2.43 0 0 Z " fill="#DFC980" transform="translate(70,649)"/>
<path d="M0 0 C0.99 0.5 0.99 0.5 2 1 C2 1.66 2 2.32 2 3 C3.32 3.66 4.64 4.32 6 5 C6 5.66 6 6.32 6 7 C6.66 7 7.32 7 8 7 C8 7.66 8 8.32 8 9 C7.01 9 6.02 9 5 9 C0 3.77 0 3.77 0 0 Z " fill="#F0DF98" transform="translate(1776,327)"/>
<path d="M0 0 C3.29 3.11 5.84 6.02 8 10 C4.2 8.51 2.28 6.34 0 3 C0 2.01 0 1.02 0 0 Z " fill="#F2E4AE" transform="translate(1819,377)"/>
<path d="M0 0 C2.11 1.71 2.94 2.52 3.29 5.26 C3.26 6.06 3.22 6.86 3.19 7.69 C3.16 8.5 3.13 9.3 3.11 10.14 C3.07 10.75 3.04 11.37 3 12 C2.67 12 2.34 12 2 12 C0.71 7.88 -0.26 4.33 0 0 Z " fill="#F0E09C" transform="translate(32,1283)"/>
<path d="M0 0 C0.66 0.33 1.32 0.66 2 1 C-0.46 5.8 -0.46 5.8 -3.19 6.81 C-3.79 6.87 -4.38 6.94 -5 7 C-4.67 6.01 -4.34 5.02 -4 4 C-3.01 4 -2.02 4 -1 4 C-0.67 2.68 -0.34 1.36 0 0 Z " fill="#DBCA83" transform="translate(311,286)"/>
<path d="M0 0 C0.66 0.33 1.32 0.66 2 1 C0.11 4.34 -0.94 4.98 -4.69 6.25 C-6.33 6.62 -6.33 6.62 -8 7 C-7.34 6.01 -6.68 5.02 -6 4 C-4.68 4 -3.36 4 -2 4 C-2 3.01 -2 2.02 -2 1 C-1.34 0.67 -0.68 0.34 0 0 Z " fill="#D6C38D" transform="translate(420,194)"/>
<path d="M0 0 C0 0.99 0 1.98 0 3 C-1.75 4.75 -1.75 4.75 -4 6 C-6.25 5.69 -6.25 5.69 -8 5 C-7.36 4.9 -6.72 4.79 -6.06 4.69 C-5.38 4.46 -4.7 4.23 -4 4 C-3.67 3.01 -3.34 2.02 -3 1 C-2.01 0.67 -1.02 0.34 0 0 Z " fill="#D9C471" transform="translate(462,166)"/>
<path d="M0 0 C3.96 0.33 7.92 0.66 12 1 C9 3 9 3 6 2.75 C3 2 3 2 0 0 Z " fill="#F3E6A9" transform="translate(1145,6)"/>
<path d="M0 0 C3 2 3 2 3.51 4.16 C3.57 4.98 3.63 5.79 3.69 6.62 C3.75 7.44 3.82 8.26 3.89 9.1 C3.92 9.73 3.96 10.35 4 11 C0 5 0 5 0 0 Z " fill="#DBCE92" transform="translate(48,1341)"/>
</svg>
